<?xml version="1.0" encoding="utf-8"?>
<!-- Generator: Adobe Illustrator 24.3.0, SVG Export Plug-In . SVG Version: 6.00 Build 0)  -->
<svg version="1.1" id="Layer_1" xmlns="http://www.w3.org/2000/svg" xmlns:xlink="http://www.w3.org/1999/xlink" x="0px" y="0px"
	 viewBox="0 0 998.6 1066.5" style="enable-background:new 0 0 998.6 1066.5;" xml:space="preserve">
<style type="text/css">
	.st0{fill:none;}
	.st1{fill:url(#SVGID_1_);}
	.st2{fill:url(#SVGID_2_);}
	.st3{fill:url(#SVGID_3_);}
	.st4{fill:url(#SVGID_4_);}
	.st5{fill:#666AF6;}
	.st6{fill:#E1E4E5;}
	.st7{fill:#FFFFFF;stroke:#E1E4E5;stroke-width:4;}
	.st8{fill:#31446C;}
	.st9{fill-rule:evenodd;clip-rule:evenodd;fill:#F8AE9D;}
	.st10{fill-rule:evenodd;clip-rule:evenodd;fill:#31446C;}
	.st11{fill-rule:evenodd;clip-rule:evenodd;fill:#666AF6;}
	.st12{fill-rule:evenodd;clip-rule:evenodd;fill:#FFFFFF;stroke:#E1E4E5;stroke-width:4;}
	.st13{fill-rule:evenodd;clip-rule:evenodd;fill:#E1E4E5;}
	.st14{fill-rule:evenodd;clip-rule:evenodd;fill:url(#SVGID_5_);}
	.st15{fill:#F8AE9D;}
	.st16{fill:url(#SVGID_6_);}
	.st17{fill:url(#SVGID_7_);}
	.st18{fill:url(#SVGID_8_);}
	.st19{fill:url(#SVGID_9_);}
	.st20{fill:#FFFFFF;}
</style>
<path class="st0" d="M-91.3,139.5h1192.6v795H-91.3V139.5z"/>
<linearGradient id="SVGID_1_" gradientUnits="userSpaceOnUse" x1="501.2364" y1="1102.0829" x2="358.4398" y2="457.8347" gradientTransform="matrix(1 0 0 1 0 -242)">
	<stop  offset="0" style="stop-color:#FFFFFF"/>
	<stop  offset="1" style="stop-color:#EEEEEE"/>
</linearGradient>
<path class="st1" d="M593.6,625.7c2.1,39.1-74.2,118.5-168.3,89c-43.7-13.6-40-36.3-73.3-66.3c-19.9-17.8-48.4-31.3-56.3-57.2
	c-6.9-22.4-2.7-46.4,9.3-62c26.6-35.1,80.6-59.2,133.7-3.8C491.9,580.9,588.2,525,593.6,625.7L593.6,625.7z"/>
<linearGradient id="SVGID_2_" gradientUnits="userSpaceOnUse" x1="502.6397" y1="825.88" x2="430.8578" y2="503.3186" gradientTransform="matrix(1 0 0 1 0 -242)">
	<stop  offset="0" style="stop-color:#FFFFFF"/>
	<stop  offset="1" style="stop-color:#EEEEEE"/>
</linearGradient>
<path class="st2" d="M557.1,490.7c-8.1,14.3-25.7,16.3-53.9,13.6c-21.2-2.1-40.7-3.7-61.9-15.2c-14.8-8.1-26.6-19.1-35.2-29.7
	c-9.3-11.5-22.3-24.6-15.9-37.8c8.7-18,59.4-33.1,108.5-8.3C552.6,440.5,564.9,476.6,557.1,490.7z"/>
<linearGradient id="SVGID_3_" gradientUnits="userSpaceOnUse" x1="548.8102" y1="1121.9429" x2="783.2487" y2="936.5001" gradientTransform="matrix(1 0 0 1 0 -242)">
	<stop  offset="0" style="stop-color:#FFFFFF"/>
	<stop  offset="1" style="stop-color:#EEEEEE"/>
</linearGradient>
<path class="st3" d="M657.4,835.2c-28.5,14-66.1-4-66.1-4s8.3-40.9,36.8-55.1c28.5-14,66.1,4,66.1,4S685.7,821.1,657.4,835.2
	L657.4,835.2z"/>
<linearGradient id="SVGID_4_" gradientUnits="userSpaceOnUse" x1="272.5119" y1="960.1518" x2="82.1677" y2="783.298" gradientTransform="matrix(1 0 0 1 0 -242)">
	<stop  offset="0" style="stop-color:#FFFFFF"/>
	<stop  offset="1" style="stop-color:#EEEEEE"/>
</linearGradient>
<path class="st4" d="M181.5,671.9c23.7,14.2,57.6,1.1,57.6,1.1s-4.4-36-28.1-50.2s-57.6-1.1-57.6-1.1S157.8,657.8,181.5,671.9
	L181.5,671.9z"/>
<circle class="st5" cx="318.3" cy="434.6" r="17.5"/>
<circle class="st5" cx="103.9" cy="577.9" r="14.6"/>
<circle class="st5" cx="932.2" cy="723.5" r="6.8"/>
<circle class="st6" cx="849" cy="695.5" r="8.7"/>
<circle class="st6" cx="103.4" cy="717.9" r="12.6"/>
<circle class="st6" cx="366.8" cy="308.5" r="9.3"/>
<circle class="st6" cx="227.4" cy="565.1" r="9.5"/>
<circle class="st6" cx="413.6" cy="243" r="12.7"/>
<ellipse class="st6" cx="909.7" cy="806.8" rx="9.8" ry="7.8"/>
<path class="st6" d="M967.1,556.3h0.3c1.5,21.5,17.5,21.9,17.5,21.9s-17.6,0.4-17.6,25.2c0-24.9-17.6-25.2-17.6-25.2
	S965.6,577.7,967.1,556.3L967.1,556.3z M318.4,235.5h0.1c0.9,13.6,10.6,13.8,10.6,13.8s-10.6,0.3-10.6,16c0-15.8-10.6-16-10.6-16
	S317.5,249,318.4,235.5z M170.8,422.8h0.1c0.9,13.6,10.6,13.8,10.6,13.8s-10.6,0.3-10.6,16c0-15.8-10.6-16-10.6-16
	S169.9,436.5,170.8,422.8z"/>
<path class="st7" d="M69.4,781.9h401.8v51.1H69.4V781.9z M177.3,730.8h401.8v51.1H177.3V730.8z M285.2,679.8h401.8v51.1H285.2V679.8
	z M393,628.6h401.8v51.1H393V628.6z M501,577.5h401.8v51.1H501V577.5z"/>
<path class="st8" d="M462.5,327.2c-0.7,2.7,0.3,5.4,1.7,7.8c1.1,1.6,2.5-0.1,4.6-0.5c3.3-0.4,5.3-3.8,6.1-12.3
	c0.3-6.1,0.1-9.1-0.1-9.8c-1.2-1.9-4.4-2.5-6.8-2.4"/>
<path class="st9" d="M468.3,692.7c0,0-0.1,12.6,7.6,17.1c7.8,4.5,19.9,12.9,19.9,12.9l-46,1.6l1.3-31.7L468.3,692.7L468.3,692.7z"/>
<path class="st10" d="M448.3,706.7l-0.8,20.5h10.7l0.8-2.7c0,0,4-0.1,6.4,0.9c2.5,1.2,2.8,1.9,2.8,1.9l33.8,0.1
	c0,0,1.7-6.6-8.6-11.4c-10.3-4.8-17.9-11.5-19.2-12.3c-1.5-0.7-4.4-1.1-6.4,0.5c-2,1.6-3.7,6-8.3,6.1
	C453.3,710.5,449.9,703.2,448.3,706.7L448.3,706.7z M435,486.6c0,0,12.6,106.4,13,113.8c0.4,7.4-4,20.1-4,34.1
	c0.1,13.8,1.6,62.5,1.6,62.5l27.7,0.4c0,0,11.7-88.1,11.8-101.4c0.1-13.3,1.2-108.3,1.2-108.3L435,486.6L435,486.6z"/>
<path class="st9" d="M401.2,690.5l-5.4,32.7l19.9-0.1l0.7-33.1L401.2,690.5L401.2,690.5z"/>
<path class="st10" d="M398.7,704.8c-1.7,0.4-3,2-3.2,3.7l-0.1,5.2c-2.8,3.2-4.1,12.2-4.2,13.1v0.1c0.4,4.5,29.4,4.4,32.1,0.1
	c0.1-0.1,0.1-0.4,0.1-0.5c-0.3-1.7-1.9-10.7-5-13.3v-5.2c0-1.9-1.2-3.3-2.9-3.8l-3.3-0.9c-2.9-4.2-6.9-4.1-10.2,0.5L398.7,704.8
	L398.7,704.8z M410.9,487.6c0,0-8.9,72.6-8.7,86.5c0.1,13.9,2.8,20-0.9,29.9c-3.7,9.9-6.9,89.6-6.9,89.6l27.4,2.3
	c0,0,17.5-85.2,19.5-97c1.9-11.8,25.4-112.4,25.4-112.4L410.9,487.6L410.9,487.6z"/>
<path class="st9" d="M547.7,357c0,0-2.3-12.7-1.5-15.4c0.7-2.3,7.3-5.4,7.3-5.4s11.5-18.3,14-16.4c2.1,1.5-6,15-6,15
	s7.4,7.7,7.3,11.1c-0.1,3.4-12.1,14.3-12.1,14.3L547.7,357L547.7,357z M428.9,360c0,0,7.6-1.7,7.8-14.3c0.3-12.5,0.1-16.7,0.1-16.7
	l18-0.3c0,0,0.1,13.9,0.1,18.9c0,11,8.1,13.9,8.1,13.9s-0.7,11.9-15.9,12.9C435.4,375.1,428.9,360,428.9,360L428.9,360z"/>
<path class="st9" d="M435.2,322.8c-7.4-0.3-6.2,10.6,1.5,10.6c0,0,8.3,16.8,21.5,16.8c6.4,0,8.3-5.6,10.3-9.5
	c1.9-4,3.3-9.8,3.4-13.5c0.1-3.8,0.1-16.6,0.1-16.6h-37.1L435.2,322.8L435.2,322.8z"/>
<path class="st11" d="M463.5,360.8c0,0,19.5,6.1,24.1,13.4c15.1,13.3,33.9,31.5,33.9,31.5s18-45.2,23.9-50.2
	c4-3.6,12.1,0.8,13.5,5.3c1.9,5.7-10.3,39.5-16.2,55.4l0,0c-0.8,2.3-1.7,4.6-2.5,6.9c-3.6,10.3-12.2,16.2-22.7,9.7
	c-4.2-2.7-16.8-11.3-27.6-19.1c-0.1,8.2-0.4,17-0.7,25.2c-0.7,20-1.2,37.5,0.1,39.8c6.8,11.3-2.3,18.9-32.1,21.7
	s-56.3,0.5-51.5-14.4c1.1-3.2,0.9-9.8,0.5-18.6c-2.9-0.1-5.8-0.4-8.7-0.5c-12.5-0.9-21.6-6.4-22.9-20.3
	c-0.9-9.7,17.6-55.4,24.6-70.5c1.6-3.6,4.1-5.7,7-6.8c0.7-0.8,1.5-1.3,2.3-1.6c5.2-1.7,23.5-9.4,23.5-9.4l21.7,14.3L463.5,360.8
	L463.5,360.8z M404.3,441.2L404.3,441.2v0.1C404.4,441.4,404.4,441.2,404.3,441.2L404.3,441.2z"/>
<path class="st9" d="M452.7,453.3c0,0,6.6-1.3,9.4-3.4c2.8-2.1,11-3.6,11-3.6l-2.7,5.6c0,0,20.1-1.9,20.7,0.1c0.5,2-5.3,4.1-5.3,4.1
	s-2.9,5.4-5.7,8.5c-2.7,2.9-15.8,2.7-20.3,0.8c-4-1.6-8.2-0.8-8.2-0.8L452.7,453.3L452.7,453.3z"/>
<path class="st8" d="M437.3,311.1c1.1,1.5,3,1.7,4.6,2c2.1,0.4,3.2,1.2,4.2,3.3c0.7,1.3,1.5,2.8,2.7,3.6c1.1,0.7,0.9-0.9,1.2-2.1
	c0-0.1,0-0.3,0-0.3c0.3-0.9,1.2-0.8,1.6,0.1c0.3,0.8,0.8,1.6,1.6,2c0.1,0,0.3,0.1,0.4,0.1c0.1,0,0.3-0.1,0.4-0.3
	c0.3-0.4,0.5-0.7,0.7-1.1c0.8-1.3,2.3-0.9,3.2,0.4c0.5,0.8,1.2,1.6,2.1,1.9c0.3,0,0.7,0,0.8-0.3c0.1-0.4-0.1-0.7,0-1.1
	c0-0.4,0.1-0.5,0.4-0.8c0.7-1.1,2-1.2,2.9-0.3c0.5,0.7,1.2,1.2,1.9,1.9c0.3,0.3,0.7,0.5,0.9,0.3c0.1-0.1,0.1-0.4,0.3-0.5
	c0.1-1.1,0.3-2.1,0.4-3c0.1-0.5,0.4-1.3,0.9-1.2c0.3,0.1,0.4,0.4,0.5,0.5c0.1,0.3,3.2,3.8,3.3,3.6c0.5-2,1.5-3.8,1.9-5.8
	c3-12.9-10.5-23.1-20.9-23.2c-2.3,0-4.4,0-6.6,0.5c-2.4,0.5-4.9,1.5-7,2.8c-3,1.9-5.3,5.2-4.8,9"/>
<path class="st8" d="M445.6,307c1.5,1.7,1.9,4,2,6.2c0.3,3.3-0.1,6.9-1.6,9.8c-0.4,0.8-0.8,5-1.5,4.8c-0.3-0.1-0.1-3.3-0.8-5
	c-0.9-2.7-4.9-3.7-6.8-2c-2.9,2.8-1.2,6.1-0.3,8.1c0.5,1.2,1.5,2.7,1.6,4c0.1,1.7,0.3,7.8-0.8,9.3c-0.9,1.2-1.9-4.6-2.7-5.7
	c-6.1-8.5-11.9-30.2-1.6-34.8c1.6-0.7,6.5-1.1,8-0.1"/>
<path class="st12" d="M204.7,490.7h81.6c7.3,0,10.5-9.4,4.5-13.6l-0.3-0.1c-8.5-5.8-19.6-5.3-19.6-5.3s-1.6-31.7-31.5-31.7
	c-27.2,0-37.9,26.6-41.9,41.3C196.1,486,199.8,490.7,204.7,490.7L204.7,490.7z"/>
<path class="st12" d="M51.4,492.1H133c7.3,0,10.5-9.4,4.5-13.6c-0.1,0-0.1-0.1-0.3-0.1c-8.5-5.8-19.6-5.3-19.6-5.3
	s-1.6-31.7-31.5-31.7c-27.2,0-37.9,26.6-41.9,41.3C42.8,487.4,46.5,492.1,51.4,492.1z"/>
<path class="st12" d="M109.7,390.1H30.6c-6.4,0-9.1-8.2-4-11.8l0.3-0.1c7.4-5,17.2-4.6,17.2-4.6s1.5-27.4,27.7-27.4
	c13,0,23.6,22,23.6,22s17.8,0,20.7,13.8C117,386.1,114,390.1,109.7,390.1L109.7,390.1z"/>
<path class="st12" d="M166,391.6h185.5c17.4,0,16.6-14.3,10.9-19.3c-5.8-5.2-17.4-3-17.4-3s-3.4-9.7-14.7-14.3
	c-9.9-4.1-20.4-2.1-20.4-2.1s0-6.6-6.4-12.1c-6.4-5.4-15-4.9-15-4.9s-5.8-36.4-45.1-36.4s-43.7,34.3-43.7,34.3s-8.7,0-15.2,5.8
	c-6.4,5.8-7.2,12.5-7.2,12.5s-21.3-2.9-27.7,15.5C146.2,378.4,153.9,391.6,166,391.6L166,391.6z"/>
<path class="st13" d="M750,790.9h4.6c1.2,0,2,0.9,2,2v4.6c0,1.2-0.9,2-2,2H750c-1.1,0-2-0.9-2-2v-4.6
	C748,791.9,748.9,790.9,750,790.9L750,790.9z M766.2,790.9h4.6c1.1,0,2,0.9,2,2v4.6c0,1.2-0.9,2-2,2h-4.6c-1.1,0-2-0.9-2-2v-4.6
	C764.2,791.9,765.1,790.9,766.2,790.9z M782.5,790.9h4.6c1.1,0,2,0.9,2,2v4.6c0,1.2-0.9,2-2,2h-4.6c-1.1,0-2-0.9-2-2v-4.6
	C780.3,791.9,781.3,790.9,782.5,790.9L782.5,790.9z M798.6,790.9h4.6c1.1,0,2,0.9,2,2v4.6c0,1.2-0.9,2-2,2h-4.6c-1.2,0-2-0.9-2-2
	v-4.6C796.6,791.9,797.6,791.1,798.6,790.9z M814.9,790.9h4.6c1.2,0,2,0.9,2,2v4.6c0,1.2-0.9,2-2,2h-4.6c-1.1,0-2-0.9-2-2v-4.6
	C812.8,791.9,813.7,790.9,814.9,790.9z M766.8,808.7h4.6c1.1,0,2,0.9,2,2v4.6c0,1.1-0.9,2-2,2h-4.6c-1.2,0-2-0.9-2-2v-4.6
	C764.7,809.6,765.6,808.7,766.8,808.7L766.8,808.7L766.8,808.7z M783,808.7h4.6c1.1,0,2,0.9,2,2v4.6c0,1.1-0.9,2-2,2H783
	c-1.1,0-2-0.9-2-2v-4.6C781,809.6,781.9,808.7,783,808.7L783,808.7L783,808.7z M799.3,808.7h4.6c1.2,0,2,0.9,2,2v4.6
	c0,1.1-0.9,2-2,2h-4.6c-1.1,0-2-0.9-2-2v-4.6C797.2,809.6,798.1,808.7,799.3,808.7L799.3,808.7z M782.5,772h4.6c1.1,0,2,0.9,2,2v4.6
	c0,1.2-0.9,2-2,2h-4.6c-1.1,0-2-0.9-2-2V774C780.3,772.9,781.3,772,782.5,772L782.5,772z M798.6,772h4.6c1.1,0,2,0.9,2,2v4.6
	c0,1.2-0.9,2-2,2h-4.6c-1.2,0-2-0.9-2-2V774C796.6,772.9,797.6,772,798.6,772z"/>
<linearGradient id="SVGID_5_" gradientUnits="userSpaceOnUse" x1="754.9687" y1="799.5959" x2="620.0759" y2="666.145" gradientTransform="matrix(1 0 0 1 0 -242)">
	<stop  offset="0" style="stop-color:#FFFFFF"/>
	<stop  offset="1" style="stop-color:#EEEEEE"/>
</linearGradient>
<path class="st14" d="M620.7,533.9c30.6,26.1,76.6,24.6,105.5-4.2c28.9-28.9,30.3-75,4.2-105.5L620.7,533.9z"/>
<path class="st8" d="M763.5,445.5h105.2V550H763.5V445.5z M715.6,327.2l40.1,40.1l-39.6,39.6l-40.1-40.1L715.6,327.2z"/>
<ellipse transform="matrix(0.1602 -0.9871 0.9871 0.1602 297.5348 1136.8695)" class="st5" cx="816.9" cy="393.6" rx="51.8" ry="51.8"/>
<circle class="st5" cx="733.2" cy="282.2" r="32.6"/>
<circle class="st15" cx="657.5" cy="330.2" r="25.3"/>
<linearGradient id="SVGID_6_" gradientUnits="userSpaceOnUse" x1="651.8923" y1="685.1724" x2="650.7078" y2="583.4352" gradientTransform="matrix(1 0 0 1 0 -242)">
	<stop  offset="0" style="stop-color:#FFFFFF"/>
	<stop  offset="1" style="stop-color:#EEEEEE"/>
</linearGradient>
<circle class="st16" cx="651.4" cy="402.4" r="19.2"/>
<path class="st15" d="M862.6,228.6l35.5,132.6l-132.6-35.5L862.6,228.6z"/>
<path class="st5" d="M560.7,416.2l76.2,20.4l-55.8,55.8L560.7,416.2L560.7,416.2z"/>
<path class="st6" d="M665.9,450.3L665.9,450.3c2.7,2.7,2.7,6.9,0,9.5l-21.7,21.7c-2.7,2.7-6.9,2.7-9.5,0l0,0c-2.7-2.7-2.7-6.9,0-9.5
	l21.7-21.7C659,447.6,663.2,447.6,665.9,450.3z"/>
<path class="st6" d="M626,365.5L626,365.5c2.1,2.1,2.1,5.4,0,7.6l-14,14c-2.1,2.1-5.4,2.1-7.6,0l0,0c-2.1-2.1-2.1-5.4,0-7.6l14-14
	C620.5,363.3,623.9,363.3,626,365.5z"/>
<path class="st6" d="M686.5,263.2L686.5,263.2c2,2,2,5.2,0,7.2l-14.4,14.4c-2,2-5.2,2-7.2,0l0,0c-2-2-2-5.2,0-7.2l14.4-14.4
	C681.4,261.2,684.5,261.2,686.5,263.2z"/>
<path class="st6" d="M811.5,251.9L811.5,251.9c2.1,2.1,2.1,5.7,0,7.8l-14,14c-2.1,2.1-5.7,2.1-7.8,0l0,0c-2.1-2.1-2.1-5.7,0-7.8
	l14-14C805.9,249.8,809.4,249.8,811.5,251.9z"/>
<linearGradient id="SVGID_7_" gradientUnits="userSpaceOnUse" x1="757.0299" y1="780.7033" x2="724.0463" y2="796.2859" gradientTransform="matrix(1 0 0 1 0 -242)">
	<stop  offset="0" style="stop-color:#FFFFFF"/>
	<stop  offset="1" style="stop-color:#EEEEEE"/>
</linearGradient>
<path class="st17" d="M742.8,541c3.7-0.9,7.8,2.3,7.8,2.3s-2.1,4.6-5.8,5.6c-3.7,0.9-7.7-2.3-7.7-2.3S739.1,542,742.8,541L742.8,541
	z"/>
<linearGradient id="SVGID_8_" gradientUnits="userSpaceOnUse" x1="751.0761" y1="578.466" x2="777.3654" y2="606.1866" gradientTransform="matrix(1 0 0 1 0 -242)">
	<stop  offset="0" style="stop-color:#FFFFFF"/>
	<stop  offset="1" style="stop-color:#EEEEEE"/>
</linearGradient>
<path class="st18" d="M764,344.1c-3.3-2.3-8.5-0.7-8.5-0.7s0.3,5.3,3.7,7.7c3.3,2.3,8.5,0.7,8.5,0.7S767.4,346.4,764,344.1
	L764,344.1z"/>
<linearGradient id="SVGID_9_" gradientUnits="userSpaceOnUse" x1="893.7097" y1="643.2523" x2="930.176" y2="700.4157" gradientTransform="matrix(1 0 0 1 0 -242)">
	<stop  offset="0" style="stop-color:#FFFFFF"/>
	<stop  offset="1" style="stop-color:#EEEEEE"/>
</linearGradient>
<path class="st19" d="M913.6,419c-5-5.2-14.4-4.1-14.4-4.1s-1.2,9.4,3.8,14.6c5,5.2,14.4,4.1,14.4,4.1S918.7,424,913.6,419z"/>
<ellipse class="st5" cx="607.3" cy="345.7" rx="9.8" ry="9.3"/>
<circle class="st5" cx="899.2" cy="255.5" r="9.8"/>
<ellipse class="st5" cx="606.5" cy="503.9" rx="8.9" ry="9.3"/>
<circle class="st20" cx="755.7" cy="334.7" r="4.5"/>
<circle class="st6" cx="820.5" cy="243.5" r="4.8"/>
<circle class="st6" cx="697.3" cy="417.5" r="2.4"/>
<circle class="st20" cx="747.1" cy="546.6" r="3.6"/>
<circle class="st6" cx="883.4" cy="386.4" r="4.8"/>
<circle class="st6" cx="899.7" cy="480.3" r="4.9"/>
<ellipse transform="matrix(0.7011 -0.713 0.713 0.7011 -108.3727 523.0356)" class="st6" cx="569.7" cy="390.8" rx="8.5" ry="6.6"/>
<circle class="st20" cx="752.5" cy="414.5" r="4.9"/>
<path class="st6" d="M687.5,447.9L687.5,447.9c-0.4-5.3-4.4-5.3-4.4-5.3s4.2-0.1,4.2-6.1c0,6.1,4.2,6.1,4.2,6.1
	S687.7,442.6,687.5,447.9z M893.1,282.2L893.1,282.2c-0.5-6.2-5-6.4-5-6.4s5-0.1,5-7.3c0,7.3,5,7.3,5,7.3S893.5,276,893.1,282.2z"/>
</svg>
