<?xml version="1.0" encoding="utf-8"?>
<!-- Generator: Adobe Illustrator 24.3.0, SVG Export Plug-In . SVG Version: 6.00 Build 0)  -->
<svg version="1.1" id="Layer_1" xmlns="http://www.w3.org/2000/svg" xmlns:xlink="http://www.w3.org/1999/xlink" x="0px" y="0px"
	 viewBox="0 0 998.6 1066.5" style="enable-background:new 0 0 998.6 1066.5;" xml:space="preserve">
<style type="text/css">
	.st0{fill:#31446C;}
	.st1{fill:#666AF6;}
	.st2{fill:none;}
	.st3{fill-rule:evenodd;clip-rule:evenodd;fill:#FFFFFF;}
	.st4{fill:#FFFFFF;}
	.st5{fill:none;stroke:#FFFFFF;stroke-width:4;stroke-linecap:round;stroke-linejoin:round;}
	.st6{fill:url(#SVGID_1_);}
	.st7{fill:url(#SVGID_2_);}
	.st8{fill:#E1E4E5;}
	.st9{fill:url(#SVGID_3_);}
	.st10{fill:#F8AE9D;}
	.st11{fill:none;stroke:#FFFFFF;stroke-width:1.376;stroke-linecap:round;stroke-miterlimit:10;}
</style>
<circle class="st0" cx="-277.6" cy="68" r="112.4"/>
<circle class="st1" cx="-273" cy="271.4" r="12.1"/>
<g>
	<path class="st2" d="M49.3,19.1h900v600h-900V19.1z"/>
	<circle class="st1" cx="398.6" cy="397.4" r="53.5"/>
	<circle class="st1" cx="322.5" cy="355.5" r="53.5"/>
	<circle class="st1" cx="244.6" cy="273.2" r="112.4"/>
	<circle class="st1" cx="733.2" cy="376.8" r="103.5"/>
	<circle class="st1" cx="340.1" cy="308.3" r="58.1"/>
	<circle class="st1" cx="304.9" cy="180.5" r="112.4"/>
	<circle class="st1" cx="725.1" cy="196.1" r="112.4"/>
	<circle class="st1" cx="419.2" cy="319.1" r="58.1"/>
	<circle class="st1" cx="457.9" cy="201.4" r="112.4"/>
	<circle class="st1" cx="572.2" cy="221.7" r="112.4"/>
	<circle class="st1" cx="468.1" cy="344.4" r="53.5"/>
	<circle class="st1" cx="550.6" cy="250" r="112.4"/>
	<circle class="st1" cx="623.2" cy="319.5" r="112.4"/>
	<path class="st3" d="M566.3,561.3l-47.5-67.4L566.3,561.3z"/>
	<path class="st3" d="M499.4,475.5c-4.8,4.8-4.8,12.7,0,17.5c4.8,4.8,12.7,4.8,17.5,0c4.8-4.8,4.8-12.7,0-17.5
		C512,470.6,504.2,470.6,499.4,475.5L499.4,475.5z"/>
	<path class="st3" d="M447.1,561.3l50.3-67.4L447.1,561.3z"/>
	<path class="st4" d="M297.1,255.6L297.1,255.6c0.6,8.1,6.1,8.2,6.1,8.2s-6.1,0.1-6.1,9.5c0-9.3-6.1-9.5-6.1-9.5
		S296.5,263.7,297.1,255.6z M369.9,308.6L369.9,308.6c0.6,8.1,6.1,8.2,6.1,8.2s-6.1,0.1-6.1,9.5c0-9.3-6.1-9.5-6.1-9.5
		S369.3,316.6,369.9,308.6L369.9,308.6z M423.4,319.6L423.4,319.6c0.7,8.1,6.7,8.2,6.7,8.2s-6.6,0.1-6.6,9.5c0-9.3-6.6-9.5-6.6-9.5
		S422.8,327.7,423.4,319.6z M401.3,374.8h0.1c0.8,10.8,8.8,10.9,8.8,10.9s-8.8,0.2-8.8,12.6c0-12.4-8.8-12.6-8.8-12.6
		S400.5,385.5,401.3,374.8z M473.6,331.7L473.6,331.7c0.6,7.6,6.1,7.7,6.1,7.7s-6.1,0.1-6.1,8.9c0-8.7-6.1-8.9-6.1-8.9
		S473.1,339.3,473.6,331.7L473.6,331.7z M541.4,314.1L541.4,314.1c0.7,7.6,6.7,7.7,6.7,7.7s-6.6,0.1-6.6,8.9c0-8.7-6.6-8.9-6.6-8.9
		S540.8,321.6,541.4,314.1z M617.5,297.5L617.5,297.5c0.7,7.6,6.7,7.7,6.7,7.7s-6.6,0.1-6.6,8.9c0-8.7-6.6-8.9-6.6-8.9
		S617,305.1,617.5,297.5L617.5,297.5z M577.8,359.2h0.1c0.8,10.8,8.8,10.9,8.8,10.9s-8.8,0.2-8.8,12.6c0-12.4-8.8-12.6-8.8-12.6
		S577,369.9,577.8,359.2z M653.9,356h0.1c0.8,10.8,8.8,10.9,8.8,10.9s-8.8,0.2-8.8,12.6c0-12.4-8.8-12.6-8.8-12.6
		S653.2,366.8,653.9,356z M692.5,397.9h0.1c0.8,10.8,8.8,10.9,8.8,10.9s-8.8,0.2-8.8,12.6c0-12.4-8.8-12.6-8.8-12.6
		S691.8,408.7,692.5,397.9L692.5,397.9z M784.1,359.3h0.1c0.8,10.8,8.8,10.9,8.8,10.9s-8.8,0.2-8.8,12.6c0-12.4-8.8-12.6-8.8-12.6
		S783.3,370.1,784.1,359.3z M745.5,428.7h0.1c0.8,10.8,8.8,10.9,8.8,10.9s-8.8,0.2-8.8,12.6c0-12.4-8.8-12.6-8.8-12.6
		S744.7,439.4,745.5,428.7z M563.5,265.5L563.5,265.5c0.7,7.6,6.7,7.7,6.7,7.7s-6.6,0.1-6.6,8.9c0-8.7-6.6-8.9-6.6-8.9
		S562.9,273.1,563.5,265.5z M668.8,256.7L668.8,256.7c0.6,7.6,6.1,7.7,6.1,7.7s-6.1,0.1-6.1,8.9c0-8.7-6.1-8.9-6.1-8.9
		S668.3,264.3,668.8,256.7L668.8,256.7z M734.5,239.1h0.1c0.8,10.8,8.8,10.9,8.8,10.9s-8.8,0.2-8.8,12.6c0-12.4-8.8-12.6-8.8-12.6
		S733.7,249.8,734.5,239.1z M731.2,359.3h0.1c0.8,10.8,8.8,10.9,8.8,10.9s-8.8,0.2-8.8,12.6c0-12.4-8.8-12.6-8.8-12.6
		S730.4,370.1,731.2,359.3z M692.6,146.4L692.6,146.4c0.6,6.7,5.6,6.8,5.6,6.8s-5.5,0.1-5.5,7.9c0-7.8-5.5-7.9-5.5-7.9
		S692.1,153.1,692.6,146.4z M725.6,171.6h0.1c0.8,10.8,8.8,10.9,8.8,10.9s-8.8,0.2-8.8,12.6c0-12.4-8.8-12.6-8.8-12.6
		S724.9,182.4,725.6,171.6z M775.3,145.9L775.3,145.9c0.7,8.1,6.7,8.2,6.7,8.2s-6.6,0.1-6.6,9.5c0-9.3-6.6-9.5-6.6-9.5
		S774.7,154,775.3,145.9z M784.1,220.5L784.1,220.5c0.4,5.4,4.4,5.5,4.4,5.5s-4.4,0.1-4.4,6.3c0-6.2-4.4-6.3-4.4-6.3
		S783.8,225.9,784.1,220.5z M171.9,267.7L171.9,267.7c0.6,6.7,5.6,6.8,5.6,6.8s-5.5,0.1-5.5,7.9c0-7.8-5.5-7.9-5.5-7.9
		S171.4,274.5,171.9,267.7L171.9,267.7z M204.9,297.4L204.9,297.4c0.6,6.7,5.6,6.8,5.6,6.8s-5.5,0.1-5.5,7.9c0-7.8-5.5-7.9-5.5-7.9
		S204.5,304.1,204.9,297.4z M257.4,287.6L257.4,287.6c0.5,6.1,5,6.1,5,6.1s-5,0.1-5,7.1c0-7-5-7.1-5-7.1S256.9,293.7,257.4,287.6z
		 M318,316.3L318,316.3c0.3,4,2.8,4.1,2.8,4.1s-2.8,0.1-2.8,4.7c0-4.7-2.8-4.7-2.8-4.7S317.8,320.3,318,316.3L318,316.3z
		 M557.7,168.5L557.7,168.5c0.6,7.7,6.4,7.8,6.4,7.8s-6.3,0.1-6.3,9c0-8.9-6.3-9-6.3-9S557.1,176.1,557.7,168.5z M583.7,211.8
		L583.7,211.8c0.6,7.7,6.4,7.8,6.4,7.8s-6.3,0.1-6.3,9c0-8.9-6.3-9-6.3-9S583.1,219.5,583.7,211.8z M680.6,177.1L680.6,177.1
		c0.6,7.7,6.4,7.8,6.4,7.8s-6.3,0.1-6.3,9c0-8.9-6.3-9-6.3-9S680,184.8,680.6,177.1z M623.1,220.4L623.1,220.4
		c0.6,7.7,6.4,7.8,6.4,7.8s-6.3,0.1-6.3,9c0-8.9-6.3-9-6.3-9S622.5,228.1,623.1,220.4L623.1,220.4z M253.5,124.7L253.5,124.7
		c0.4,5.4,4.4,5.5,4.4,5.5s-4.4,0.1-4.4,6.3c0-6.2-4.4-6.3-4.4-6.3S253.1,130.1,253.5,124.7L253.5,124.7z M273.3,186.1L273.3,186.1
		c0.7,7.6,6.7,7.7,6.7,7.7s-6.6,0.1-6.6,8.9c0-8.7-6.6-8.9-6.6-8.9S272.8,193.7,273.3,186.1z M197.8,200.1L197.8,200.1
		c0.5,6.1,5,6.1,5,6.1s-5,0.1-5,7.1c0-7-5-7.1-5-7.1S197.4,206.1,197.8,200.1z M251.3,222.5h0.1c0.7,10.1,7.7,10.2,7.7,10.2
		s-7.7,0.2-7.7,11.8c0-11.7-7.7-11.8-7.7-11.8S250.6,232.6,251.3,222.5L251.3,222.5z M512.7,137.6h0.1c0.8,10.8,8.8,10.9,8.8,10.9
		s-8.8,0.2-8.8,12.6c0-12.4-8.8-12.6-8.8-12.6S512,148.3,512.7,137.6z M336.2,125.7L336.2,125.7c0.4,5.4,4.4,5.5,4.4,5.5
		s-4.4,0.1-4.4,6.3c0-6.2-4.4-6.3-4.4-6.3S335.9,131,336.2,125.7z M315.3,217L315.3,217c0.7,7.6,6.7,7.7,6.7,7.7s-6.6,0.1-6.6,8.9
		c0-8.7-6.6-8.9-6.6-8.9S314.7,224.6,315.3,217L315.3,217z"/>
	<path class="st5" d="M449.7,170.1V156 M442.6,163h14.2 M522.1,227.8v-14.2 M515,220.8h14.2 M347.8,280.8v-14.2 M340.7,273.7h14.2
		 M246.3,341.5v-14.2 M239.2,334.4h14.2 M367.6,362.4v-14.2 M360.5,355.4h14.2 M674.3,328.2v-14.2 M667.2,321.2h14.2 M761.5,330.4
		v-14.2 M754.4,323.4h14.2 M694.2,230.1v-14.2 M687.1,223h14.2 M492.3,295.1V281 M485.2,288.1h14.2 M228.6,183.7v-14.2 M221.5,176.6
		h14.2 M622.5,176v-14.2 M615.4,168.9h14.2"/>
	<path class="st3" d="M472.9,223.2c-17.7,5.7-38.2,2.1-52.4-12c-17.7-17.7-19.1-46-5-65.8c-29,2.8-51.7,26.9-51.7,56.6
		c0,31.1,25.5,56.6,56.6,56.6C443.8,258.6,464.4,243.7,472.9,223.2L472.9,223.2z"/>
	
		<linearGradient id="SVGID_1_" gradientUnits="userSpaceOnUse" x1="815.1992" y1="137.799" x2="894.7622" y2="200.734" gradientTransform="matrix(1 0 0 -1 0 448.0112)">
		<stop  offset="0" style="stop-color:#FFFFFF"/>
		<stop  offset="1" style="stop-color:#EEEEEE"/>
	</linearGradient>
	<path class="st6" d="M852,295c-9.6,4.8-22.4-1.4-22.4-1.4s2.8-13.9,12.5-18.7c9.6-4.8,22.4,1.4,22.4,1.4S861.7,290.2,852,295
		L852,295z"/>
	
		<linearGradient id="SVGID_2_" gradientUnits="userSpaceOnUse" x1="311.3283" y1="-76.8617" x2="181.9183" y2="43.3772" gradientTransform="matrix(1 0 0 -1 0 448.0112)">
		<stop  offset="0" style="stop-color:#FFFFFF"/>
		<stop  offset="1" style="stop-color:#EEEEEE"/>
	</linearGradient>
	<path class="st7" d="M249.5,493.4c16.1,9.6,39.2,0.7,39.2,0.7s-3-24.5-19.1-34.2c-16.1-9.6-39.1-0.7-39.1-0.7
		S233.4,483.8,249.5,493.4L249.5,493.4z"/>
	<circle class="st0" cx="772.7" cy="205.2" r="12.1"/>
	<circle class="st0" cx="321.2" cy="456.7" r="13.6"/>
	<circle class="st0" cx="202.3" cy="246.1" r="8"/>
	<circle class="st0" cx="615.1" cy="262" r="5.3"/>
	<circle class="st0" cx="716.6" cy="298.4" r="5.3"/>
	<circle class="st0" cx="617.3" cy="351.4" r="5.3"/>
	<circle class="st0" cx="419.9" cy="290.7" r="5.3"/>
	<circle class="st0" cx="320.6" cy="364.6" r="5.3"/>
	<circle class="st0" cx="285.3" cy="305" r="5.3"/>
	<circle class="st8" cx="849.4" cy="452.1" r="6.8"/>
	<circle class="st8" cx="225.5" cy="417.6" r="9.8"/>
	<circle class="st8" cx="338.9" cy="167.2" r="7.5"/>
	<circle class="st8" cx="727.8" cy="121.6" r="6.5"/>
	<circle class="st8" cx="248" cy="262.7" r="7.4"/>
	<circle class="st8" cx="440.4" cy="117" r="9.9"/>
	<ellipse class="st8" cx="727.8" cy="506.6" rx="7.6" ry="6.1"/>
	<circle class="st8" cx="630.1" cy="83.9" r="13.6"/>
	<path class="st8" d="M869.5,338.4h0.2c1.2,16.7,13.6,17,13.6,17s-13.7,0.3-13.7,19.6c0-19.3-13.7-19.6-13.7-19.6
		S868.3,355.1,869.5,338.4z M306.9,94.5h0.2c1.2,17.2,13.7,17.4,13.7,17.4s-13.8,0.3-13.8,20.1c0-19.8-13.8-20.1-13.8-20.1
		S305.7,111.7,306.9,94.5z"/>
</g>
<path class="st2" d="M-23.4,408.2h1057.9v705.3H-23.4V408.2z"/>
<linearGradient id="SVGID_3_" gradientUnits="userSpaceOnUse" x1="528.067" y1="-762.2385" x2="513.569" y2="483.0226" gradientTransform="matrix(1 0 0 -1 0 448.0112)">
	<stop  offset="0" style="stop-color:#FFFFFF"/>
	<stop  offset="1" style="stop-color:#EEEEEE"/>
</linearGradient>
<circle class="st9" cx="522.3" cy="711.5" r="235.1"/>
<path class="st10" d="M682.5,969.6c11.6-3.9,21.6-12.2,27.4-22.9c1.7-2.9,3-6.3,2.6-9.7c-0.1-0.7-0.3-1.5-0.9-1.8
	c-0.6-0.3-1.3-0.1-1.9,0c-19.3,5.2-39.7,14-60,13.1c-0.9,0-1.9-0.1-2.7,0.3c-1,0.4-1.6,1.3-2.1,2.3c-1.5,3.2-2.9,9.2-2.4,12.8
	c0.6,4.3,4.7,4.9,8.4,5.8C661.3,972.2,672.2,973.1,682.5,969.6z"/>
<path class="st10" d="M684.3,945.7c1.6-0.7,3.2-1.3,4.8-1.3c1.7,0,3.5,0.9,4,2.5c0.4,1.1,0,2.3-0.4,3.3c-1.2,2.7-3.3,4.9-5.6,6.8
	c-8.6,7.3-19.7,11.7-31,12.4c-5,0.3-10.3-0.2-14.7-2.5c2.2-2.7,1.8-6.5,2-9.9c0.7-9.9,9.2-6.2,16-6.2
	C667.9,950.6,676.4,948.9,684.3,945.7L684.3,945.7z"/>
<path class="st0" d="M425.6,872.1l-0.4,1.1c-2.7,7.9-4.8,16-5.7,24.3c-1.6,15.3,1.4,33.2,12.9,44.3c15.4,14.8,40,17.1,60,13.6
	c8.2-1.4,15.9-4.9,22.5-10c6.5,5.9,13.5,12.4,19.4,19c11.7-4.1,22.9-9.7,33.2-16.6c24.4,11.2,49.4,18.7,75.7,24.2
	c3-7.5,5.1-15.3,6.3-23.3c0.2-1.3-16.2-12.4-18.1-13.9c-5.7-4.8-17.5-15.7-17.5-15.7s14.9-12.7,21.4-18.7
	c6.9-6.2,13.5-12.7,19.8-19.5c5.2-5.6,10.3-11.5,13.5-18.5c3.2-6.9,4.4-15.1,1.7-22.4c-8.4-22.4-42.5-14.6-58.3-6.8
	c-13.1,6.4-24.5,15.8-35.6,25.2c-4.4,3.8-8.8,7.7-13.2,11.5c-3.4-3.5-7.2-8.1-10.4-11.8c-3.5-4-7.4-7.8-12.2-10.1
	c-5-2.5-9.7-2.2-15-2.9c-2.4-0.3-4.7-1.1-7.1-1.5c-7-1.3-14.5,0.1-20.6,3.7c-5.9,3.4-10.6,7.5-17.5,8.8c-7.8,1.5-16.9,0.6-24.7-0.4
	c-7-1-14.2-2.6-21.2-1.2c-2.9,0.6-4,4.6-5,7C428.2,865,426.9,868.5,425.6,872.1L425.6,872.1z M487.7,613.3c0,0-18.9-3-24,30.4
	c-5.6,37.1-20.7,31-44.6,61.2c-14,17.6,0.7,48.7,30.6,48.1c29.9-0.6,56.9-9.2,74.1-5.5c17.2,3.7,18.2-40.4,1.2-54
	c-17-13.6,19.2-52.6-2.8-70C500.1,606,487.7,613.3,487.7,613.3L487.7,613.3z"/>
<path class="st0" d="M374.6,760.5c-1.7-3.5-1.6-7.7-1-11.5c2.7-16.5,14.3-30.3,27.5-40.4c13.3-10.1,28.5-17.4,42.5-26.4
	c3.6-2.4,7.3-4.9,11.4-6.2c4.2-1.3,9-1.1,12.5,1.5c2.4,1.9,3.8,4.8,4.7,7.7c1.8,6.4,1.1,13.1,0,19.6c-1.4,8.2-3.4,16.3-6.7,23.8
	c-2.6,6.1-6.9,12.3-13.4,13.5c-1.9,7.2-5.7,14-11.1,19.2c-6.2,6-14,9.8-22.1,12.6c-7.5,2.5-15.7,4.1-23.2,1.8
	c-4.5-1.4-8.4-4-12.2-6.7C380,766.8,376.5,764.3,374.6,760.5z M442.2,749.5l4.4-7c-0.9,0.1-1.8,0.3-2.7,0.6
	C441.5,744.2,440,748,442.2,749.5z"/>
<path class="st10" d="M524,642.6c0.2,1.2,0.3,2.5,0.2,4c-0.5,8.7-2.4,17.2-5.5,25.3c-1.9,4.8-4.3,9.5-7.6,13.5c-1.4,1.6-3,3.2-5,3.8
	c-2.1,0.6-4.8,0.7-6.9,0.1c-1.8,7.6-1.1,22.1,5.5,27.5c2,1.6,4.4,2.7,6.8,3.6c4.7,1.8,9.5,3.2,14.4,4.2c5.5,1.2,11.6,2.1,15.5,6.2
	c0.5,0.5,1,1.2,0.8,1.9c-0.1,0.4-0.4,0.7-0.8,1c-3.1,2.5-6.9,3.9-10.6,5.2c-6.6,2.2-13.5,4.1-20.4,5.4c-7.3,1.3-14.7,1.9-22.1,1.1
	c-5.7-0.6-11.3-2.1-16.4-4.6c-5.4-2.7-10.9-4.9-16.5-7.4c-4.7-2.2-9.4-4.7-14.5-5.5c2.4-4.6,7.5-7.2,12.5-8.4
	c5-1.2,10.3-1.3,15.4-2.2c1.7-0.3,3.3-0.8,4.8-1.8c3.9-2.8,2.9-9.2,2.9-13.3l0.2-13.1c-0.6-6.3-3.2-11.5-5.4-17.2
	c-3.5-8.8-4.2-18.7-1.1-27.7c3-8.9,10-16.7,18.8-19.8c8.9-3.1,19.6-1.4,26.4,5.2C519.5,633.5,523.1,637.2,524,642.6L524,642.6z"/>
<path class="st0" d="M496.7,614.8c8.9-1,16.9,3.3,22.9,10.1c5,5.6,8,13.1,7.8,20.6c0,1.1-0.1,2.2-0.7,3.2c-1.6,2.3-5.1,1.5-7.7,0.4
	c-4.2-1.6-7.4-4-11.2-6.1s-8.5-1.7-12-4.5c-3.2-2.7-14.4-8.3-14.7-12.7c-0.4-5.3,9.4-9.7,13.5-10.6
	C495.3,614.9,495.9,614.8,496.7,614.8L496.7,614.8z"/>
<path class="st0" d="M471.2,626.9c-7.5,4.8-11,13.3-11.4,22.3c-0.3,7.5,2.1,15.2,6.9,20.9c0.7,0.8,1.5,1.6,2.6,2
	c2.7,0.8,4.9-2.1,6.2-4.5c2.3-3.9,3.2-7.8,4.9-11.8s5.5-6.7,6.4-11.1c0.8-4.1,5.9-15.6,3.4-19.2c-3.1-4.4-13.4-1.6-17.2,0.3
	C472.4,626.1,471.8,626.4,471.2,626.9z"/>
<path class="st1" d="M537.8,728.8c1.2-0.5,2.6-0.1,3.4,0.9c8.8,12.4,12.2,27.9,15.2,42.8c3.4,17,6.4,34,9.3,51.1
	c0.2,0.9,0.3,1.8-0.1,2.6c-0.4,0.8-1.3,1.2-2.1,1.6c-5.1,2.5-10.3,4.9-15.4,7.3c-5.5-12.5-9.5-25.7-11.8-39.2
	c-3.3,8.3-9.2,15.5-16.8,20.2c5.6,8.1,12.6,24.2,19.3,31.3c1,1.1,7.4-0.6,8.9-1.1c0.9,2.5-3.3-0.2-3.3,2.4
	c-3.8,0.6-8.8-1.7-12.7-2.2c-4.8-0.6-9.6-0.6-14.3-0.1c-7.9,0.9-15.6,3.3-22.7,7.1c-3.5,1.9-6.9,4-10,6.3c-2.8,2.1-9.6,6.9-9.6,6.9
	c-0.5,0.4-2.8-0.2-3.4-0.3c-1.6-0.3-3.2-0.5-4.9-0.6c-4.1-0.3-8.2-0.9-12.2-1.6c-8.1-1.5-16-3.8-23.6-6.9c-0.7-0.6,1.9-6,2-7
	c-0.1,1-15.1-0.2-16.6-0.5c-5.9-1.2-11.9-1.9-17.8-3.1c2.6-23.8,9.9-46.8,17.1-69.7c2.8-9,5.7-18,9.6-26.4c4.2-9,9.7-17.5,16.2-25
	c0.2-0.2,0.5-0.3,0.7-0.2c3.1,0.8,22.3,5.7,31.8,9.3c4.9,1.9,9.8,3.5,14.8,5.2c2,0.6,4,1.3,6,1.3c1.4,0,2.7-0.3,4-0.6
	C512.2,737.5,525.5,734.3,537.8,728.8L537.8,728.8z"/>
<path class="st11" d="M451.4,776.3c-0.5,3.4-1.3,6.8-2,10.2c-1.8,7.7-4.1,15.3-6.8,22.6c-1.4,3.7-2.9,7.3-4.6,10.9
	c-0.8,1.8-1.7,3.6-2.6,5.3c-0.4,0.9-0.9,1.8-1.3,2.6c-0.4,0.7-0.8,1.4-1.2,2.1c2.7-0.1,15.8,0.7,18.5,0.9"/>
<path class="st10" d="M451.8,833.7c-0.3,1.7-0.6,3.5-1,5.2l-1.2,5.2c-0.4,1.5-1.3,3.3-1.3,4.9c0-0.3,10.5-1.2,11.5-1.3
	c11-1.1,22-1.7,32.9-2.4c7.1-0.4,14.1-0.3,21.2-0.2c2.1,0,4.6-0.2,5.7-1.9c0.9-1.5,0.2-3.3,0.9-4.7c0.5,0.1,6.2,1.6,6.2,1.5
	c0.2,1.3,0.7,4,2,4.7c0.5,0.2,1,0.3,1.5,0.3c0.7,0,1.5-0.1,2.2-0.2c0.1,0,0.2,0,0.3-0.1c0.1-0.1,0-0.3-0.1-0.5
	c-1.7-2.5-2.6-5.4-2.5-8.4c-1.8-1.2-3.5-2.6-5.1-4.1c-1.2-1.3-2.1-2.9-3.5-3.9c-1.4-1.2-2.8-0.5-4.3-0.1c-1.8,0.4-3.6,0.9-5.3,1.4
	c-3.4,1.1-6.8,2.4-9.7,4.5c-1,0.7-1.9,1.5-3.1,1.9c-1.1,0.4-2.4,0.3-3.5,0.3c-7.2-0.2-14.5-0.5-21.6-1.3c-7.3-0.8-12.4-0.7-22-2.1
	C452.1,832.1,452,832.7,451.8,833.7z"/>
<path class="st11" d="M531.5,775.6c1.7,7.5,3,15,3.8,22.7"/>
<path class="st0" d="M677.3,763.3L656,857.9l-161.1-2.4c0.1-5.6,4.7-10.1,10.3-10l38.5,0.6l19.2-87.1c0.6-2.8,3.2-4.8,6-4.8
	l102.5,1.6C675.3,755.9,678.1,759.5,677.3,763.3L677.3,763.3z"/>
<path class="st10" d="M466.8,994.5c0.7-4.3,2.9-8.7,4.8-12.6c8.2-15.8,22.7-27,38.4-34.7c1.6-0.8,3.2-1.6,4.9-2.2
	c-0.1,0.2-0.3,0.4-0.4,0.6l0,0.1h-0.1c0.2-0.1,0.3-0.2,0.5-0.4c6.3,5.7,13.1,12,18.9,18.3c-3.8,3.1-9.4,5.6-12.1,7.7
	c-6.5,4.8-12.8,9.9-19.5,14.4c-9.1,6.1-18.7,10.5-29.5,12.5c-4.2,0.7-6.3,1.5-6.3-1.7C466.6,996,466.6,995.4,466.8,994.5
	L466.8,994.5z"/>
<path class="st10" d="M477.3,982c4.2-7.9,10.7-13.9,17.9-19.3c5-3.8,10.3-7.1,15.4-10.6c1.4-1,4.3-3.6,6.7-4.8
	c5.1,4.6,10.2,9.4,14.9,14.4c-15.5,9.4-29.3,21.7-46.2,28.4c-1.6,0.6-3.2,1.2-4.8,1.2c-1.7,0-3.5-0.7-4.4-2
	C475.1,987.2,476.1,984.3,477.3,982L477.3,982z"/>
<path class="st8" d="M775.4,961.2c-1.1-0.6-1.8-1.8-1.8-3c0.1-1.3,1-2.5,2.3-2.8c0.4-0.1,0.7-0.1,1.1-0.2c2.2-0.3,4.4-0.5,6.6-1
	c0.9-0.2,1.9-0.1,2.8,0.5c1.1,0.7,1.6,1.8,1.5,3.1c-0.1,1.3-0.9,2.2-2.1,2.7c-0.2,0.1-0.5,0.1-0.7,0.2c-2.5,0.4-5.1,0.8-7.6,1
	C776.7,961.6,776,961.5,775.4,961.2L775.4,961.2z M785.6,970.2c-0.5,1-1.3,1.6-2.3,1.9c-2.5,0.6-5,1.2-7.5,1.3
	c-2.3,0.1-3.9-2.1-3.1-4.3c0.4-1.2,1.4-2,2.7-2.1c1.7-0.2,3.3-0.5,4.9-0.8c0.5-0.1,1-0.3,1.5-0.4c1.2-0.4,2.6,0,3.4,1
	C786,967.7,786.2,969.1,785.6,970.2L785.6,970.2z M792.8,963.7c0.4-0.8,1.1-1.4,2-1.7c1.4-0.4,2.7-0.7,4.1-1
	c0.6-0.1,1.2-0.3,1.8-0.6c1.7-0.8,3.7-0.2,4.6,1.5c0,0.1,0.1,0.1,0.1,0.2c0.7,1.8-0.1,3.7-2,4.4c-0.3,0.1-0.5,0.2-0.8,0.2
	c-2.1,0.4-4.1,0.8-6.1,1.3c-1.3,0.3-2.4,0-3.3-1C792.4,966.1,792.3,964.8,792.8,963.7z M796.4,972.3c1.4,0.7,1.9,1.8,1.9,3.2
	c0,1.3-0.6,2.4-1.8,3c-0.4,0.2-0.9,0.4-1.4,0.5c-1.7,0.4-3.3,0.8-5,1.2c-1.1,0.3-2.1,0.1-3-0.6c-1-0.8-1.4-1.8-1.2-3
	c0.2-1.3,1-2.2,2.3-2.5c1-0.3,2-0.5,3-0.8c0.7-0.2,1.5-0.4,2.1-0.9C794.3,971.8,795.4,971.8,796.4,972.3L796.4,972.3z M816.4,975.8
	c-0.3,0.7-0.8,1.2-1.5,1.5c-0.4,0.2-0.8,0.3-1.2,0.4c-1.4,0.3-2.8,0.7-4.2,1.1c-2.1,0.6-4-0.8-4.1-2.9c-0.1-1.3,0.7-2.5,2-3.1
	c1-0.4,2-0.7,3-0.9c0.5-0.1,1-0.3,1.5-0.6c1.3-0.8,2.8-0.6,3.9,0.4C816.7,972.9,817,974.5,816.4,975.8z M757,958.8
	c0.4-0.7,0.9-1.2,1.5-1.5c0.4-0.2,0.9-0.4,1.4-0.4c1.3-0.1,2.6-0.3,4-0.3c2.4-0.1,4,2,3.3,4.3c-0.4,1.2-1.3,1.9-2.5,2.1
	c-0.4,0.1-0.8,0.1-1.2,0.1c-1.1,0.1-2.1,0.2-3.2,0.3c-1.3,0.2-2.3-0.3-3-1.3C756.5,961.1,756.5,959.9,757,958.8L757,958.8z
	 M794.2,946c1.3,0.6,1.9,1.8,1.8,3.1c-0.1,1.4-0.8,2.3-2.1,2.8c-0.3,0.1-0.6,0.2-0.9,0.2c-1.2,0.1-2.3,0.1-3.5,0.1
	c-0.7,0-1.3-0.2-1.8-0.6c-1.1-0.8-1.6-2.1-1.3-3.3c0.3-1.3,1.3-2.3,2.6-2.4c1.3-0.1,2.6-0.1,3.9-0.1
	C793.4,945.6,793.9,945.8,794.2,946L794.2,946z"/>
<path class="st1" d="M173.6,693c0,0-8.9-34,4.8-49.4c14.7-16.5,25.7-0.2,14.1,23.1C184.6,682.6,173.6,693,173.6,693L173.6,693z
	 M167.9,730.7c0,0-30.7-17.3-32.1-37.8c-1.6-22,17.8-18.5,26.5,5.9C168.2,715.6,167.9,730.7,167.9,730.7z M167.9,753.1
	c0,0,33.3-11.9,38.3-31.8c5.4-21.4-14.3-21.2-27.1,1.4C170.3,738.2,167.9,753.1,167.9,753.1z M169.6,769.2c0,0-35.2-2.8-45.1-20.8
	c-10.7-19.3,8.4-24.2,26.6-5.7C163.5,755.4,169.6,769.2,169.6,769.2L169.6,769.2z"/>
<path class="st0" d="M180.6,662.7c-6.9,21.3-12.1,43.2-13.7,65.6c-1.6,22,0.3,44.1,4.6,65.7c1.1,5.7,2.4,11.3,3.8,16.9l2.1-1.1
	c-3.7-14.9-6.6-30-8-45.3c-1.9-21.3-0.6-42.7,3.5-63.6c2.5-12.7,5.9-25.1,9.9-37.4C183.3,662,181,661.3,180.6,662.7L180.6,662.7z"/>
<path class="st1" d="M78.5,763.6c0,0-16.6-31-6.9-49.2c10.4-19.5,24.9-6.2,19.1,19.1C86.7,751,78.5,763.6,78.5,763.6L78.5,763.6z
	 M81.8,801.6c0,0-33.9-9.6-40.1-29.2c-6.7-21,13-22.2,27.2-0.4C78.5,786.9,81.8,801.6,81.8,801.6z M87,823.3
	c0,0,29.5-19.4,29.8-39.9c0.3-22.1-18.9-17.3-26.1,7.7C85.9,808.3,87,823.3,87,823.3z M92.4,838.6c0,0-34.9,5.5-48.7-9.6
	c-14.9-16.2,2.5-25.6,24.5-11.8C83.3,826.7,92.4,838.6,92.4,838.6z"/>
<path class="st0" d="M78.1,732.5c-1.7,22.3-1.6,44.9,2,67c3.6,21.8,10.6,42.8,19.9,62.8c2.4,5.2,5,10.4,7.7,15.5l1.8-1.6
	c-7.1-13.6-13.5-27.6-18.4-42.1c-6.8-20.2-10.6-41.3-11.6-62.6c-0.5-12.9-0.1-25.8,0.8-38.7C80.6,731.2,78.3,731,78.1,732.5z"/>
<path class="st1" d="M903.7,809.6c0,0-5.3-26.1,5.6-37.1c11.8-11.9,19.4,0.9,9.8,18C912.4,802.2,903.7,809.6,903.7,809.6
	L903.7,809.6z M897.9,837.8c0,0-22.5-14.3-22.7-29.8c-0.3-16.7,14.2-13.3,19.8,5.5C898.7,826.5,897.9,837.8,897.9,837.8z M897,854.7
	c0,0,25.6-7.7,30.2-22.5c5-16-10-16.6-20.6,0C899.4,843.6,897,854.7,897,854.7z M897.6,867c0,0-26.4-3.5-33.2-17.5
	c-7.3-15,7.3-18,20.3-3.3C893.5,856.3,897.6,867,897.6,867z"/>
<path class="st0" d="M910.2,787c-6,15.8-10.8,32.2-13,49c-2.1,16.6-1.6,33.3,0.9,49.8c0.6,4.3,1.4,8.6,2.2,12.9l1.7-0.8
	c-2.2-11.4-3.8-22.9-4.2-34.5c-0.6-16.1,1.2-32.2,5.1-47.9c2.4-9.5,5.5-18.8,8.9-27.9C912.2,786.5,910.6,785.9,910.2,787L910.2,787z
	"/>
<path class="st1" d="M838.5,727.1c0,0-5.3-26.1,5.6-37.1c11.8-11.9,19.4,0.9,9.8,18C847.2,719.7,838.5,727.1,838.5,727.1z
	 M832.7,755.3c0,0-22.5-14.3-22.7-29.8c-0.3-16.7,14.2-13.3,19.8,5.5C833.5,744,832.7,755.3,832.7,755.3z M831.8,772.2
	c0,0,25.6-7.7,30.2-22.5c5-16-10-16.6-20.6,0C834.2,761.1,831.8,772.2,831.8,772.2L831.8,772.2z M832.4,784.5
	c0,0-26.4-3.5-33.2-17.5c-7.3-15,7.3-18,20.3-3.3C828.4,773.9,832.4,784.5,832.4,784.5z"/>
<path class="st0" d="M845,704.5c-6,15.8-10.8,32.2-13,49c-2.1,16.6-1.6,33.3,0.9,49.8c0.6,4.3,1.4,8.6,2.2,12.9l1.7-0.8
	c-2.2-11.4-3.8-22.9-4.2-34.5c-0.6-16.1,1.2-32.2,5.1-47.9c2.4-9.5,5.5-18.8,9-27.9C847,704.1,845.4,703.5,845,704.5L845,704.5z"/>
<path class="st8" d="M573.2,1005.1c-1.1-0.6-1.8-1.8-1.8-3c0.1-1.3,1-2.5,2.3-2.8c0.4-0.1,0.7-0.1,1.1-0.2c2.2-0.2,4.4-0.5,6.6-1
	c0.9-0.2,1.9-0.1,2.8,0.5c1.1,0.7,1.6,1.8,1.5,3.1c-0.1,1.3-0.9,2.2-2.1,2.7c-0.2,0.1-0.5,0.1-0.7,0.2c-2.5,0.4-5.1,0.8-7.6,1
	C574.5,1005.5,573.8,1005.4,573.2,1005.1L573.2,1005.1z M583.4,1014.1c-0.5,1-1.3,1.6-2.3,1.9c-2.5,0.6-5,1.2-7.5,1.3
	c-2.3,0.1-3.9-2.1-3.1-4.3c0.4-1.2,1.4-2,2.7-2.1c1.7-0.2,3.3-0.5,4.9-0.8c0.5-0.1,1-0.3,1.5-0.4c1.2-0.4,2.6,0,3.4,1
	C583.8,1011.6,584,1013,583.4,1014.1L583.4,1014.1z M590.6,1007.6c0.4-0.8,1.1-1.4,2-1.7c1.4-0.4,2.7-0.7,4.1-1
	c0.6-0.1,1.2-0.3,1.8-0.6c1.7-0.8,3.7-0.2,4.6,1.5c0,0.1,0.1,0.1,0.1,0.2c0.7,1.8-0.1,3.7-2,4.4c-0.3,0.1-0.5,0.2-0.8,0.2
	c-2.1,0.4-4.1,0.8-6.1,1.3c-1.3,0.3-2.4,0-3.3-1C590.2,1010,590.1,1008.7,590.6,1007.6z M594.2,1016.2c1.4,0.7,1.9,1.8,1.9,3.2
	c0,1.3-0.6,2.4-1.8,3c-0.4,0.2-0.9,0.4-1.4,0.5c-1.7,0.4-3.3,0.8-5,1.2c-1.1,0.3-2.1,0.1-3-0.6c-1-0.8-1.4-1.8-1.2-3
	c0.2-1.3,1-2.2,2.3-2.5c1-0.3,2-0.5,3-0.8c0.8-0.2,1.5-0.4,2.1-0.9C592.1,1015.7,593.2,1015.7,594.2,1016.2L594.2,1016.2z
	 M614.2,1019.7c-0.3,0.7-0.8,1.2-1.5,1.5c-0.4,0.2-0.8,0.3-1.2,0.4c-1.4,0.3-2.8,0.7-4.2,1.1c-2.1,0.6-4-0.8-4.1-2.9
	c-0.1-1.3,0.7-2.5,2-3.1c1-0.4,2-0.7,3-0.9c0.5-0.1,1-0.3,1.5-0.6c1.3-0.8,2.8-0.6,3.9,0.4C614.5,1016.8,614.8,1018.4,614.2,1019.7
	L614.2,1019.7z M554.8,1002.7c0.4-0.7,0.9-1.2,1.5-1.5c0.4-0.2,0.9-0.4,1.4-0.4c1.3-0.1,2.6-0.3,4-0.3c2.4-0.1,4,2,3.3,4.3
	c-0.4,1.2-1.3,1.9-2.5,2.1c-0.4,0.1-0.8,0.1-1.2,0.1c-1.1,0.1-2.1,0.2-3.2,0.3c-1.3,0.2-2.3-0.3-3-1.3
	C554.3,1005,554.3,1003.8,554.8,1002.7L554.8,1002.7z M592,989.9c1.3,0.6,1.9,1.8,1.8,3.1c-0.1,1.4-0.8,2.3-2.1,2.8
	c-0.3,0.1-0.6,0.2-0.9,0.2c-1.2,0.1-2.3,0.1-3.5,0.1c-0.7,0-1.3-0.2-1.8-0.6c-1.1-0.8-1.6-2.1-1.3-3.3c0.3-1.3,1.3-2.3,2.6-2.4
	c1.3-0.1,2.6-0.1,3.9-0.2C591.2,989.5,591.7,989.7,592,989.9L592,989.9z M380.3,985.1c-1.1-0.6-1.8-1.8-1.8-3c0.1-1.3,1-2.5,2.3-2.8
	c0.4-0.1,0.7-0.1,1.1-0.2c2.2-0.2,4.4-0.5,6.6-1c0.9-0.2,1.9-0.1,2.7,0.5c1.1,0.7,1.6,1.8,1.5,3.1c-0.1,1.3-0.9,2.2-2.1,2.7
	c-0.2,0.1-0.5,0.1-0.7,0.2c-2.5,0.4-5.1,0.8-7.6,1C381.6,985.5,380.9,985.5,380.3,985.1L380.3,985.1z M390.5,994.1
	c-0.5,1-1.3,1.6-2.3,1.9c-2.5,0.6-5,1.2-7.5,1.3c-2.3,0.1-3.9-2.1-3.1-4.3c0.4-1.2,1.4-2,2.7-2.1c1.7-0.2,3.3-0.5,4.9-0.8
	c0.5-0.1,1-0.3,1.5-0.4c1.2-0.4,2.6,0,3.4,1C390.9,991.7,391.1,993,390.5,994.1L390.5,994.1z M397.7,987.6c0.4-0.8,1.1-1.4,2-1.7
	c1.4-0.4,2.7-0.7,4.1-1c0.6-0.1,1.2-0.3,1.8-0.6c1.7-0.8,3.7-0.2,4.6,1.5c0,0.1,0.1,0.1,0.1,0.2c0.7,1.8-0.1,3.7-2,4.4
	c-0.3,0.1-0.5,0.2-0.8,0.2c-2.1,0.4-4.1,0.8-6.1,1.3c-1.3,0.3-2.4,0-3.3-1C397.3,990.1,397.2,988.8,397.7,987.6z M401.3,996.2
	c1.4,0.7,1.9,1.8,1.9,3.2c0,1.3-0.6,2.4-1.8,3c-0.4,0.2-0.9,0.4-1.4,0.5c-1.7,0.4-3.3,0.8-5,1.2c-1.1,0.3-2.1,0.1-3-0.6
	c-1-0.8-1.4-1.8-1.2-3c0.2-1.3,1-2.2,2.3-2.5c1-0.3,2-0.5,3-0.8c0.8-0.2,1.5-0.4,2.1-0.9C399.2,995.7,400.3,995.8,401.3,996.2
	L401.3,996.2z M421.3,999.7c-0.3,0.7-0.8,1.2-1.5,1.5c-0.4,0.2-0.8,0.3-1.2,0.4c-1.4,0.3-2.8,0.7-4.2,1.1c-2.1,0.6-4-0.8-4.1-2.9
	c-0.1-1.3,0.7-2.5,2-3.1c1-0.4,2-0.7,3-0.9c0.5-0.1,1-0.3,1.5-0.6c1.3-0.8,2.8-0.6,3.9,0.4C421.6,996.8,421.9,998.4,421.3,999.7
	L421.3,999.7z M361.9,982.8c0.4-0.7,0.9-1.2,1.5-1.5c0.4-0.2,0.9-0.4,1.4-0.4c1.3-0.1,2.6-0.3,4-0.3c2.4-0.1,4,2,3.3,4.3
	c-0.4,1.2-1.3,1.9-2.5,2.1c-0.4,0.1-0.8,0.1-1.2,0.1c-1.1,0.1-2.1,0.2-3.2,0.3c-1.3,0.2-2.3-0.3-3-1.3
	C361.4,985,361.4,983.9,361.9,982.8z M399.1,969.9c1.3,0.6,1.9,1.8,1.8,3.1c-0.1,1.4-0.8,2.3-2.1,2.8c-0.3,0.1-0.6,0.2-0.9,0.2
	c-1.2,0.1-2.3,0.1-3.5,0.1c-0.7,0-1.3-0.2-1.8-0.6c-1.1-0.8-1.6-2.1-1.3-3.3c0.3-1.3,1.3-2.3,2.6-2.4c1.3-0.1,2.6-0.1,3.9-0.2
	C398.3,969.6,398.8,969.7,399.1,969.9L399.1,969.9z M252.6,945.2c-1.1-0.6-1.8-1.8-1.8-3c0.1-1.3,1-2.5,2.3-2.8
	c0.4-0.1,0.7-0.1,1.1-0.2c2.2-0.3,4.4-0.5,6.6-1c0.9-0.2,1.9-0.1,2.8,0.5c1.1,0.7,1.6,1.8,1.5,3.1c-0.1,1.3-0.9,2.2-2.1,2.7
	c-0.2,0.1-0.5,0.1-0.7,0.2c-2.5,0.4-5.1,0.8-7.6,1C253.9,945.6,253.2,945.5,252.6,945.2L252.6,945.2z M262.8,954.2
	c-0.5,1-1.3,1.6-2.3,1.9c-2.5,0.6-5,1.2-7.5,1.3c-2.3,0.1-3.9-2.1-3.1-4.3c0.4-1.2,1.4-2,2.7-2.1c1.7-0.2,3.3-0.5,4.9-0.8
	c0.5-0.1,1-0.3,1.5-0.4c1.2-0.4,2.6,0,3.4,1C263.2,951.7,263.4,953.1,262.8,954.2L262.8,954.2z M270,947.7c0.4-0.8,1.1-1.4,2-1.7
	c1.4-0.4,2.7-0.7,4.1-1c0.6-0.1,1.2-0.3,1.8-0.6c1.7-0.8,3.7-0.2,4.6,1.5c0,0.1,0.1,0.1,0.1,0.2c0.7,1.8-0.1,3.7-2,4.4
	c-0.3,0.1-0.5,0.2-0.8,0.2c-2.1,0.4-4.1,0.8-6.1,1.3c-1.3,0.3-2.4,0-3.3-1C269.6,950.2,269.5,948.9,270,947.7L270,947.7z
	 M273.6,956.3c1.4,0.7,1.9,1.8,1.9,3.2c0,1.3-0.6,2.4-1.8,3c-0.4,0.2-0.9,0.4-1.4,0.5c-1.7,0.4-3.3,0.8-5,1.2
	c-1.1,0.3-2.1,0.1-3-0.6c-1-0.8-1.4-1.8-1.2-3c0.2-1.3,1-2.2,2.3-2.5c1-0.3,2-0.5,3-0.8c0.8-0.2,1.5-0.4,2.1-0.9
	C271.5,955.8,272.6,955.9,273.6,956.3L273.6,956.3z M293.6,959.8c-0.3,0.7-0.8,1.2-1.5,1.5c-0.4,0.2-0.8,0.3-1.2,0.4
	c-1.4,0.3-2.8,0.7-4.2,1.1c-2.1,0.6-4-0.8-4.1-2.9c-0.1-1.3,0.7-2.5,2-3.1c1-0.4,2-0.7,3-0.9c0.5-0.1,1-0.3,1.5-0.6
	c1.3-0.8,2.8-0.6,3.9,0.4C293.9,956.9,294.2,958.5,293.6,959.8L293.6,959.8z M234.2,942.9c0.4-0.7,0.9-1.2,1.5-1.5
	c0.4-0.2,0.9-0.4,1.4-0.4c1.3-0.1,2.6-0.3,4-0.3c2.4-0.1,4,2,3.3,4.3c-0.4,1.2-1.3,1.9-2.5,2.1c-0.4,0.1-0.8,0.1-1.2,0.1
	c-1.1,0.1-2.1,0.2-3.2,0.3c-1.3,0.2-2.3-0.3-3-1.3C233.7,945.1,233.7,944,234.2,942.9z M271.4,930c1.3,0.6,1.9,1.8,1.8,3.1
	c-0.1,1.4-0.8,2.3-2.1,2.8c-0.3,0.1-0.6,0.2-0.9,0.2c-1.2,0.1-2.3,0.1-3.5,0.1c-0.7,0-1.3-0.2-1.8-0.6c-1.1-0.8-1.6-2.1-1.3-3.3
	c0.3-1.3,1.3-2.3,2.6-2.4c1.3-0.1,2.6-0.1,3.9-0.1C270.6,929.7,271.1,929.8,271.4,930L271.4,930z M123.6,1001.1
	c-1.1-0.6-1.8-1.8-1.8-3c0.1-1.3,1-2.5,2.3-2.8c0.4-0.1,0.7-0.1,1.1-0.2c2.2-0.2,4.4-0.5,6.6-1c0.9-0.2,1.9-0.1,2.8,0.5
	c1.1,0.7,1.6,1.8,1.5,3.1c-0.1,1.3-0.9,2.2-2.1,2.7c-0.2,0.1-0.5,0.1-0.7,0.2c-2.5,0.4-5.1,0.8-7.6,1
	C124.9,1001.5,124.2,1001.4,123.6,1001.1L123.6,1001.1z M133.8,1010.1c-0.5,1-1.3,1.6-2.3,1.9c-2.5,0.6-5,1.2-7.5,1.3
	c-2.3,0.1-3.9-2.1-3.1-4.3c0.4-1.2,1.4-2,2.7-2.1c1.7-0.2,3.3-0.5,4.9-0.8c0.5-0.1,1-0.3,1.5-0.4c1.2-0.4,2.6,0,3.4,1
	C134.2,1007.6,134.3,1009,133.8,1010.1L133.8,1010.1z M141,1003.6c0.4-0.8,1.1-1.4,2-1.7c1.4-0.4,2.7-0.7,4.1-1
	c0.6-0.1,1.2-0.3,1.8-0.6c1.7-0.8,3.7-0.2,4.6,1.5c0,0.1,0.1,0.1,0.1,0.2c0.7,1.8-0.1,3.7-2,4.4c-0.3,0.1-0.5,0.2-0.8,0.2
	c-2.1,0.4-4.1,0.8-6.1,1.3c-1.3,0.3-2.4,0-3.3-1C140.6,1006.1,140.4,1004.8,141,1003.6z M144.6,1012.2c1.4,0.7,1.9,1.8,1.9,3.2
	c0,1.3-0.6,2.4-1.8,3c-0.4,0.2-0.9,0.4-1.4,0.5c-1.7,0.4-3.3,0.8-5,1.2c-1.1,0.3-2.1,0.1-3-0.6c-1-0.8-1.4-1.8-1.2-3
	c0.2-1.3,1-2.2,2.3-2.5c1-0.3,2-0.5,3-0.8c0.8-0.2,1.5-0.4,2.1-0.9C142.5,1011.7,143.6,1011.7,144.6,1012.2L144.6,1012.2z
	 M164.5,1015.7c-0.3,0.7-0.8,1.2-1.5,1.5c-0.4,0.2-0.8,0.3-1.2,0.4c-1.4,0.3-2.8,0.7-4.2,1.1c-2.1,0.6-4-0.8-4.2-2.9
	c-0.1-1.3,0.7-2.5,2-3.1c1-0.4,2-0.7,3-0.9c0.5-0.1,1-0.3,1.5-0.6c1.3-0.8,2.8-0.6,3.9,0.4C164.9,1012.8,165.2,1014.4,164.5,1015.7
	L164.5,1015.7z M105.1,998.7c0.4-0.7,0.9-1.2,1.5-1.5c0.4-0.2,0.9-0.4,1.4-0.4c1.3-0.1,2.6-0.3,4-0.3c2.4-0.1,4,2,3.3,4.3
	c-0.4,1.2-1.3,1.9-2.5,2.1c-0.4,0.1-0.8,0.1-1.2,0.1c-1.1,0.1-2.1,0.2-3.2,0.3c-1.3,0.2-2.3-0.3-3-1.3
	C104.6,1001,104.6,999.9,105.1,998.7L105.1,998.7z M142.4,985.9c1.3,0.6,1.9,1.8,1.8,3.1c-0.1,1.4-0.8,2.3-2.1,2.8
	c-0.3,0.1-0.6,0.2-0.9,0.2c-1.2,0.1-2.3,0.1-3.5,0.1c-0.7,0-1.3-0.2-1.8-0.6c-1.1-0.8-1.6-2.1-1.3-3.3c0.3-1.3,1.3-2.3,2.6-2.4
	c1.3-0.1,2.6-0.1,3.9-0.2C141.6,985.5,142,985.7,142.4,985.9L142.4,985.9z M880.5,1015.7c-1.1-0.6-1.8-1.8-1.8-3
	c0.1-1.3,1-2.5,2.3-2.8c0.4-0.1,0.7-0.1,1.1-0.2c2.2-0.3,4.4-0.5,6.6-1c0.9-0.2,1.9-0.1,2.8,0.5c1.1,0.7,1.6,1.8,1.5,3.1
	c-0.1,1.3-0.9,2.2-2.1,2.7c-0.2,0.1-0.5,0.1-0.7,0.2c-2.5,0.4-5.1,0.8-7.6,1C881.8,1016.1,881.1,1016,880.5,1015.7z M890.7,1024.7
	c-0.5,1-1.3,1.6-2.3,1.9c-2.5,0.6-5,1.2-7.5,1.3c-2.3,0.1-3.9-2.1-3.1-4.3c0.4-1.2,1.4-2,2.7-2.1c1.7-0.2,3.3-0.5,4.9-0.8
	c0.5-0.1,1-0.3,1.5-0.4c1.2-0.4,2.6,0,3.4,1C891.1,1022.2,891.3,1023.6,890.7,1024.7L890.7,1024.7z M897.9,1018.2
	c0.4-0.8,1.1-1.4,2-1.7c1.4-0.4,2.7-0.7,4.1-1c0.6-0.1,1.2-0.3,1.8-0.6c1.7-0.8,3.7-0.2,4.6,1.5c0,0.1,0.1,0.1,0.1,0.2
	c0.7,1.8-0.1,3.7-2,4.4c-0.3,0.1-0.5,0.2-0.8,0.2c-2.1,0.4-4.1,0.8-6.1,1.3c-1.3,0.3-2.4,0-3.3-1
	C897.5,1020.7,897.4,1019.4,897.9,1018.2L897.9,1018.2z M901.5,1026.8c1.4,0.7,1.9,1.8,1.9,3.2c0,1.3-0.6,2.4-1.8,3
	c-0.4,0.2-0.9,0.4-1.4,0.5c-1.7,0.4-3.3,0.8-5,1.2c-1.1,0.3-2.1,0.1-3-0.6c-1-0.8-1.4-1.8-1.2-3c0.2-1.3,1-2.2,2.3-2.5
	c1-0.3,2-0.5,3-0.8c0.8-0.2,1.5-0.4,2.1-0.9C899.4,1026.3,900.5,1026.4,901.5,1026.8L901.5,1026.8z M921.5,1030.3
	c-0.3,0.7-0.8,1.2-1.5,1.5c-0.4,0.2-0.8,0.3-1.2,0.4c-1.4,0.3-2.8,0.7-4.2,1.1c-2.1,0.6-4-0.8-4.2-2.9c-0.1-1.3,0.7-2.5,2-3.1
	c1-0.4,2-0.7,3-0.9c0.5-0.1,1-0.3,1.5-0.6c1.3-0.8,2.8-0.6,3.9,0.4C921.8,1027.4,922.1,1029,921.5,1030.3L921.5,1030.3z
	 M862.1,1013.4c0.4-0.7,0.9-1.2,1.5-1.5c0.4-0.2,0.9-0.4,1.4-0.4c1.3-0.1,2.6-0.3,4-0.3c2.4-0.1,4,2,3.3,4.3
	c-0.4,1.2-1.3,1.9-2.5,2.1c-0.4,0.1-0.8,0.1-1.2,0.1c-1.1,0.1-2.1,0.2-3.2,0.3c-1.3,0.2-2.3-0.3-3-1.3
	C861.6,1015.6,861.6,1014.5,862.1,1013.4L862.1,1013.4z M899.3,1000.5c1.3,0.6,1.9,1.8,1.8,3.1c-0.1,1.4-0.8,2.3-2.1,2.8
	c-0.3,0.1-0.6,0.2-0.9,0.2c-1.2,0.1-2.3,0.1-3.5,0.1c-0.7,0-1.3-0.2-1.8-0.6c-1.1-0.8-1.6-2.1-1.3-3.3c0.3-1.3,1.3-2.3,2.6-2.4
	c1.3-0.1,2.6-0.1,3.9-0.2C898.5,1000.2,899,1000.3,899.3,1000.5L899.3,1000.5z"/>
<path class="st1" d="M240.8,738.3c0,0-14.3-54.9,7.8-79.7c23.7-26.7,41.5-0.4,22.8,37.2C258.5,721.6,240.8,738.3,240.8,738.3z
	 M231.5,799.1c0,0-49.5-27.9-51.8-60.9c-2.5-35.5,28.8-29.9,42.7,9.6C232,774.8,231.5,799.1,231.5,799.1z M231.6,835.1
	c0,0,53.6-19.2,61.8-51.3c8.8-34.5-23.1-34.3-43.8,2.2C235.5,811.1,231.6,835.1,231.6,835.1L231.6,835.1z M234.3,861.2
	c0,0-56.7-4.6-72.8-33.5c-17.3-31.1,13.6-39.1,42.9-9.2C224.4,839,234.3,861.2,234.3,861.2L234.3,861.2z"/>
<path class="st0" d="M252,689.4c-11.1,34.4-19.5,69.7-22.1,105.8c-2.6,35.5,0.4,71.1,7.4,105.9c1.8,9.1,3.9,18.2,6.2,27.2l3.4-1.8
	c-6-24-10.7-48.3-12.8-73c-3.1-34.3-1-68.8,5.6-102.6c4-20.4,9.6-40.6,15.9-60.4C256.4,688.2,252.8,687.1,252,689.4L252,689.4z"/>
<path class="st1" d="M329.9,770.2c0,0-14.3-54.9,7.8-79.7c23.7-26.7,41.5-0.4,22.8,37.2C347.7,753.5,329.9,770.2,329.9,770.2
	L329.9,770.2z M320.7,831c0,0-49.5-27.9-51.8-60.9c-2.5-35.5,28.8-29.9,42.7,9.6C321.1,806.7,320.7,831,320.7,831L320.7,831z
	 M320.8,867c0,0,53.6-19.2,61.8-51.3c8.8-34.5-23.1-34.3-43.8,2.2C324.6,843,320.8,867,320.8,867z M323.4,893.1
	c0,0-56.7-4.6-72.8-33.5c-17.3-31.1,13.6-39.1,42.9-9.2C313.6,870.9,323.4,893.1,323.4,893.1z"/>
<path class="st0" d="M341.2,721.3c-11.1,34.4-19.5,69.7-22.1,105.8c-2.6,35.5,0.4,71.1,7.4,105.9c1.8,9.1,3.9,18.2,6.2,27.2l3.4-1.8
	c-6-24-10.7-48.3-12.8-73c-3.1-34.3-1-68.8,5.6-102.6c4-20.4,9.6-40.6,15.9-60.4C345.5,720.2,341.9,719,341.2,721.3L341.2,721.3z"/>
<path class="st1" d="M844,856.6c0,0-8.9-34,4.8-49.4c14.7-16.5,25.7-0.2,14.1,23.1C855.1,846.3,844,856.6,844,856.6L844,856.6z
	 M838.3,894.3c0,0-30.7-17.3-32.1-37.8c-1.6-22,17.8-18.5,26.5,6C838.6,879.3,838.3,894.3,838.3,894.3L838.3,894.3z M838.4,916.7
	c0,0,33.3-11.9,38.3-31.8c5.4-21.4-14.3-21.2-27.1,1.4C840.8,901.8,838.4,916.7,838.4,916.7L838.4,916.7z M840,932.8
	c0,0-35.2-2.8-45.1-20.8c-10.7-19.3,8.4-24.2,26.6-5.7C833.9,919.1,840,932.8,840,932.8z"/>
<path class="st0" d="M851,826.3c-6.9,21.3-12.1,43.2-13.7,65.6c-1.6,22,0.3,44.1,4.6,65.7c1.1,5.7,2.4,11.3,3.8,16.9l2.1-1.1
	c-3.7-14.9-6.6-30-8-45.3c-1.9-21.3-0.6-42.7,3.5-63.6c2.5-12.7,5.9-25.1,9.9-37.4C853.7,825.6,851.5,824.9,851,826.3L851,826.3z"/>
<path class="st1" d="M925.2,889.9c0,0-8.9-34,4.8-49.4c14.7-16.5,25.7-0.2,14.1,23.1C936.2,879.5,925.2,889.9,925.2,889.9
	L925.2,889.9z M919.5,927.6c0,0-30.7-17.3-32.1-37.8c-1.6-22,17.8-18.5,26.5,5.9C919.8,912.5,919.5,927.6,919.5,927.6z M919.5,949.9
	c0,0,33.3-11.9,38.3-31.8c5.4-21.4-14.3-21.2-27.1,1.4C921.9,935,919.5,949.9,919.5,949.9z M921.2,966.1c0,0-35.2-2.8-45.1-20.8
	c-10.7-19.3,8.4-24.2,26.6-5.7C915.1,952.3,921.2,966.1,921.2,966.1z"/>
<path class="st0" d="M932.2,859.6c-6.9,21.3-12.1,43.2-13.7,65.6c-1.6,22,0.3,44.1,4.6,65.7c1.1,5.7,2.4,11.3,3.8,16.9l2.1-1.1
	c-3.7-14.9-6.6-30-8-45.3c-1.9-21.3-0.6-42.7,3.5-63.6c2.5-12.7,5.9-25.1,9.9-37.4C934.9,858.9,932.6,858.2,932.2,859.6L932.2,859.6
	z"/>
<path class="st1" d="M767.8,767.7c0,0-11.7-45,6.4-65.3c19.4-21.8,34-0.3,18.7,30.5C782.3,754,767.8,767.7,767.8,767.7z
	 M760.2,817.5c0,0-40.5-22.9-42.4-49.9c-2.1-29.1,23.6-24.5,35,7.9C760.6,797.6,760.2,817.5,760.2,817.5z M760.3,847.1
	c0,0,43.9-15.7,50.6-42c7.2-28.3-18.9-28.1-35.9,1.8C763.4,827.4,760.3,847.1,760.3,847.1z M762.4,868.4c0,0-46.5-3.7-59.6-27.4
	c-14.1-25.5,11.1-32,35.1-7.6C754.4,850.2,762.4,868.4,762.4,868.4z"/>
<path class="st0" d="M777,727.7c-9.1,28.2-15.9,57.1-18.1,86.6c-2.2,29.1,0.3,58.2,6.1,86.8c1.5,7.5,3.2,14.9,5.1,22.3l2.8-1.5
	c-4.9-19.6-8.7-39.6-10.5-59.8c-2.5-28.1-0.9-56.4,4.6-84c3.3-16.7,7.8-33.2,13-49.5C780.5,726.7,777.6,725.8,777,727.7L777,727.7z"
	/>
<path class="st1" d="M136.2,850.1c0,0-24.8-39.3-13.7-64.1c11.9-26.7,32.3-10.6,27,23.4C145.9,832.6,136.2,850.1,136.2,850.1z
	 M144.1,899.8c0,0-45.5-9.5-55.5-34.7c-10.8-27.1,15.1-30.5,35.7-3.1C138.4,880.7,144.1,899.8,144.1,899.8L144.1,899.8z
	 M153.1,927.9c0,0,37.1-28.3,35.5-55.4c-1.7-29.1-26.5-21-33.6,12.6C150.2,908.2,153.1,927.9,153.1,927.9z M161.6,947.6
	c0,0-45.4,10.5-65.1-8.1c-21.2-20,0.9-33.9,31.2-17.8C148.4,932.7,161.6,947.6,161.6,947.6L161.6,947.6z"/>
<path class="st0" d="M132.9,809.1c-0.1,29.6,2.1,59.3,9,88.1c6.7,28.4,18,55.4,32.1,80.8c3.7,6.7,7.6,13.3,11.6,19.7l2.2-2.2
	c-10.6-17.2-20.3-35.1-28.1-53.8c-10.9-26-17.9-53.5-21.1-81.5c-1.9-17-2.6-34-2.5-51.1C136,807.1,132.9,807.1,132.9,809.1
	L132.9,809.1z"/>
<path class="st1" d="M347.2,982.6c0.3-0.9,0.9-1.7,1.4-2.5c3.6-6.1,6.7-12.5,9-19.2c1.4-4.1,2.9-8.2,3.8-12.4
	c0.8-3.7,1.6-7.4,2-11.2c0.2-2,0.4-3.9,0.5-5.9c0-1.1,0.2-2.1,0.1-3.2c-0.2-1.9-0.1-3.9-0.6-5.8c-0.1-0.4-0.2-0.7-0.3-1
	c-0.8-1.9-2.6-2.3-4.2-0.9c-0.7,0.7-1.3,1.5-1.8,2.4c-2.3,4-4.2,8.2-5.9,12.4c-2.6,6.6-4.9,13.2-7.1,19.9c-0.4,1.2-0.8,2.4-1.3,3.6
	c0-0.7-0.1-1.3,0-2c0.2-0.9,0.1-1.8,0.2-2.7c0.4-5.6,0.3-11.3,0.2-17c-0.1-2.3-0.3-4.5-0.5-6.8c-0.2-1.5-0.3-3.1-0.5-4.6
	c-0.6-4.4-1.2-8.8-2.9-12.9c-0.3-0.8-0.8-1.6-1.4-2.2c-1.3-1.3-2.8-1.2-4,0.2c-1.1,1.4-1.7,3-2.1,4.7c-0.6,2.1-0.9,4.2-1.2,6.4
	c-0.5,3.6-0.6,7.3-0.7,11c-0.1,2.5-0.2,5-0.1,7.5c0.1,2.8,0.1,5.6,0.2,8.4c0.2,2.8,0.2,5.6,0.4,8.3c0,0.1,0,0.1,0,0.3
	c-0.4-0.6-0.4-1.3-0.6-1.8c-1.8-7.4-4-14.6-7-21.6c-1.8-4.3-3.9-8.6-6.7-12.4c-1.1-1.5-2.4-3-4-4c-0.9-0.5-1.8-0.9-2.9-0.6
	c-1.1,0.3-1.8,1.1-2.2,2.1c-0.6,1.5-0.7,3.1-0.6,4.7c0.2,2.5,0.6,4.9,1,7.4c0.9,4.5,2.2,8.8,3.8,13.1c3,7.9,6.4,15.6,9.6,23.4
	c0.1,0.3,0.4,0.6,0.3,1c0.1,0,0.2,0.1,0.2,0.2c0,0-0.1,0.1-0.1,0.1c0-0.1,0-0.2-0.1-0.3c-0.6-0.4-0.9-1.1-1.3-1.7
	c-2.2-3.2-4.5-6.3-7.1-9.3c-2.5-2.9-5-5.7-8.3-7.7c-1.2-0.7-2.3-1.4-3.8-1.4c-1.6,0-2.7,0.7-3.2,2.3c-0.3,1-0.4,2-0.3,3.1
	c0.4,3.6,1.9,6.8,3.8,9.7c2.7,4.1,5.7,8,9,11.6c3.3,3.7,7.1,6.9,10.9,9.9c3.4,2.7,6.8,5.5,10.2,8.2c0.9,0.7,1.9,1.5,2.8,2.1
	c1,0.7,2,0.8,3.1,0.5c4.5-1.3,8.9-2.7,13-4.9c3.2-1.7,6.2-3.8,9-6.1c2.7-2.2,5.3-4.5,7.7-7.1c2.1-2.3,4.1-4.6,5.5-7.4
	c0.5-0.9,0.7-1.8,0.6-2.8c-0.1-1-0.8-1.8-1.8-1.9c-0.8-0.1-1.7-0.1-2.5,0.2c-2.2,0.7-4.1,2-5.8,3.5c-3.9,3.2-7.8,6.4-11.5,9.9
	c-1.1,1-2.3,2-3.4,3C347.6,982.5,347.4,982.7,347.2,982.6c0,0.2,0,0.4-0.2,0.4c0,0,0,0.1,0,0.1c0,0,0,0-0.1,0c0,0,0.1,0,0.1-0.1
	C346.9,982.9,347,982.7,347.2,982.6L347.2,982.6z M190.3,1002.7c0.2-0.6,0.6-1.1,1-1.7c2.5-4.2,4.6-8.6,6.2-13.3
	c1-2.8,2-5.7,2.6-8.6c0.6-2.6,1.1-5.2,1.3-7.8c0.1-1.4,0.3-2.7,0.3-4.1c0-0.7,0.1-1.5,0.1-2.2c-0.1-1.3-0.1-2.7-0.4-4
	c-0.1-0.2-0.1-0.5-0.2-0.7c-0.6-1.3-1.8-1.6-2.8-0.6c-0.5,0.5-0.9,1-1.2,1.6c-1.6,2.8-2.9,5.7-4,8.6c-1.8,4.5-3.4,9.1-4.8,13.8
	c-0.3,0.8-0.5,1.7-0.9,2.5c0-0.5-0.1-0.9,0-1.4c0.1-0.6,0.1-1.3,0.1-1.9c0.2-3.9,0.2-7.8,0.1-11.7c-0.1-1.6-0.2-3.1-0.4-4.7
	c-0.1-1.1-0.2-2.1-0.4-3.2c-0.4-3-0.8-6.1-2-9c-0.2-0.6-0.5-1.1-0.9-1.5c-0.9-0.9-1.9-0.8-2.7,0.2c-0.8,1-1.1,2.1-1.5,3.2
	c-0.4,1.4-0.6,2.9-0.8,4.4c-0.3,2.5-0.4,5-0.5,7.6c-0.1,1.7-0.1,3.5-0.1,5.2c0.1,1.9,0.1,3.9,0.2,5.8c0.1,1.9,0.2,3.8,0.3,5.8
	c0,0.1,0,0.1,0,0.2c-0.3-0.4-0.3-0.9-0.4-1.3c-1.2-5.1-2.7-10.1-4.8-15c-1.3-3-2.7-5.9-4.6-8.6c-0.8-1.1-1.6-2.1-2.8-2.8
	c-0.6-0.4-1.3-0.6-2-0.4c-0.8,0.2-1.2,0.7-1.5,1.5c-0.4,1-0.5,2.1-0.4,3.2c0.1,1.7,0.4,3.4,0.7,5.1c0.6,3.1,1.5,6.1,2.6,9.1
	c2,5.5,4.4,10.8,6.6,16.2c0.1,0.2,0.3,0.4,0.2,0.7c0.1,0,0.1,0.1,0.1,0.1c0,0,0,0-0.1,0.1c0-0.1,0-0.1-0.1-0.2
	c-0.4-0.3-0.6-0.8-0.9-1.2c-1.5-2.2-3.1-4.4-4.8-6.4c-1.7-2-3.4-3.9-5.7-5.3c-0.8-0.5-1.6-1-2.6-1c-1.1,0-1.9,0.5-2.2,1.6
	c-0.2,0.7-0.3,1.4-0.2,2.2c0.3,2.5,1.3,4.7,2.6,6.7c1.8,2.9,3.9,5.5,6.2,8.1c2.3,2.5,4.8,4.7,7.5,6.9c2.3,1.9,4.7,3.8,7,5.7
	c0.6,0.5,1.3,1,1.9,1.5c0.6,0.4,1.4,0.6,2.2,0.4c3.1-0.9,6.1-1.9,8.9-3.4c2.2-1.2,4.3-2.6,6.2-4.2c1.9-1.5,3.6-3.1,5.3-4.9
	c1.4-1.6,2.8-3.2,3.8-5.1c0.3-0.6,0.5-1.2,0.4-1.9c-0.1-0.7-0.6-1.3-1.3-1.3c-0.6-0.1-1.2,0-1.7,0.1c-1.5,0.5-2.8,1.4-4,2.4
	c-2.7,2.2-5.4,4.5-7.9,6.8c-0.8,0.7-1.5,1.4-2.3,2.1C190.6,1002.7,190.5,1002.8,190.3,1002.7c0,0.2,0,0.3-0.1,0.3c0,0,0,0,0,0.1
	c0,0,0,0,0,0c0,0,0.1,0,0.1-0.1C190.2,1002.9,190.2,1002.8,190.3,1002.7L190.3,1002.7z M855.5,990.8c0.2-0.6,0.6-1.1,1-1.7
	c2.5-4.2,4.6-8.6,6.2-13.3c1-2.8,2-5.7,2.6-8.6c0.6-2.6,1.1-5.2,1.3-7.8c0.1-1.4,0.3-2.7,0.3-4.1c0-0.7,0.1-1.5,0.1-2.2
	c-0.1-1.3-0.1-2.7-0.4-4c-0.1-0.2-0.1-0.5-0.2-0.7c-0.6-1.3-1.8-1.6-2.8-0.6c-0.5,0.5-0.9,1-1.2,1.6c-1.6,2.8-2.9,5.7-4,8.6
	c-1.8,4.5-3.4,9.1-4.8,13.8c-0.3,0.8-0.5,1.7-0.9,2.5c0-0.5-0.1-0.9,0-1.4c0.1-0.6,0.1-1.3,0.1-1.9c0.2-3.9,0.2-7.8,0.1-11.7
	c0-1.6-0.2-3.1-0.4-4.7c-0.1-1.1-0.2-2.1-0.4-3.2c-0.4-3-0.8-6.1-2-9c-0.2-0.6-0.5-1.1-0.9-1.5c-0.9-0.9-1.9-0.8-2.7,0.2
	c-0.8,1-1.1,2.1-1.5,3.2c-0.4,1.4-0.6,2.9-0.8,4.4c-0.3,2.5-0.4,5-0.5,7.6c-0.1,1.7-0.1,3.5-0.1,5.2c0.1,1.9,0.1,3.9,0.2,5.8
	c0.1,1.9,0.2,3.8,0.3,5.8c0,0.1,0,0.1,0,0.2c-0.3-0.4-0.3-0.9-0.4-1.3c-1.2-5.1-2.7-10.1-4.8-15c-1.3-3-2.7-5.9-4.6-8.6
	c-0.8-1.1-1.6-2.1-2.8-2.8c-0.6-0.4-1.3-0.6-2-0.4c-0.8,0.2-1.2,0.7-1.5,1.5c-0.4,1-0.5,2.1-0.4,3.2c0.1,1.7,0.4,3.4,0.7,5.1
	c0.6,3.1,1.5,6.1,2.6,9.1c2,5.5,4.4,10.8,6.6,16.2c0.1,0.2,0.3,0.4,0.2,0.7c0.1,0,0.1,0.1,0.1,0.1c0,0,0,0-0.1,0.1
	c0-0.1,0-0.1-0.1-0.2c-0.4-0.3-0.6-0.8-0.9-1.2c-1.5-2.2-3.1-4.4-4.8-6.4c-1.7-2-3.4-3.9-5.7-5.3c-0.8-0.5-1.6-1-2.6-1
	c-1.1,0-1.9,0.5-2.2,1.6c-0.2,0.7-0.3,1.4-0.2,2.2c0.3,2.5,1.3,4.7,2.6,6.7c1.8,2.9,3.9,5.5,6.2,8.1c2.3,2.5,4.8,4.7,7.5,6.9
	c2.3,1.9,4.7,3.8,7,5.7c0.6,0.5,1.3,1,1.9,1.5c0.7,0.5,1.4,0.6,2.2,0.4c3.1-0.9,6.1-1.9,8.9-3.4c2.2-1.2,4.3-2.6,6.2-4.2
	c1.9-1.5,3.6-3.1,5.3-4.9c1.4-1.6,2.8-3.2,3.8-5.1c0.3-0.6,0.5-1.2,0.4-1.9c-0.1-0.7-0.6-1.3-1.3-1.3c-0.6-0.1-1.2,0-1.7,0.1
	c-1.5,0.5-2.8,1.4-4,2.4c-2.7,2.2-5.4,4.5-7.9,6.8c-0.8,0.7-1.5,1.4-2.3,2.1C855.8,990.7,855.7,990.8,855.5,990.8
	c0,0.2,0,0.3-0.1,0.3c0,0,0,0,0,0.1c0,0,0,0,0,0c0,0,0.1,0,0.1-0.1C855.3,991,855.4,990.8,855.5,990.8L855.5,990.8z"/>
</svg>
